<?xml version="1.0" encoding="utf-8"?>
<!-- Generator: Adobe Illustrator 19.1.0, SVG Export Plug-In . SVG Version: 6.00 Build 0)  -->
<svg version="1.1" xmlns="http://www.w3.org/2000/svg" xmlns:xlink="http://www.w3.org/1999/xlink" x="0px" y="0px"
	 viewBox="0 0 256 256" enable-background="new 0 0 256 256" xml:space="preserve">



<g id="Layer_1">
	<g>
		<path id="bog-fill" fill="#50B848" d="M217.9,253H38c-19,0-34.5-15.5-34.5-34.5V36C3.5,17,19,1.5,38,1.5h179.9c19,0,34.5,15.5,34.5,34.5v182.4
			C252.4,237.5,236.9,253,217.9,253z"/>
		<path fill="#FFFFFF" d="M206.4,165.1l-60.4,0.2c0,0-12.6,15.5-10.3,34.7c1.1,9.7-7.7-0.3-14.8-12.9c-5.4-9.7-8.9-22-8.9-22H49.5
			c-16.5,0-30-13.5-30-30V46.7c0-16.5,13.5-30,30-30h156.9c16.5,0,30,13.5,30,30v88.4C236.4,151.6,222.9,165.1,206.4,165.1z"/>
	</g>
	<g>
		<path fill="#F27324" stroke="#F27324" stroke-width="4" stroke-miterlimit="10" d="M51.3,62.4v17.5c3.6-1.6,6.6-2.3,10.7-2.3
			c8.1,0,20.4,5.4,20.4,21.3c0,16.3-11.3,22-20.1,22c-5.8,0-8.1-1.6-12.3-4.7l-1.5,4.7l-6.6-0.7c2.1-4.9,2.4-10.2,2.4-15.4V62.4
			H51.3z M51.3,108.7c2.2,3.8,5.1,7.3,10.9,7.3c4.6,0,13.2-3.3,13.2-16.8c0-11.6-7-16.6-14.5-16.6c-3.5,0-6.7,1.5-9.5,3.3V108.7z"/>
		<path fill="#F27324" stroke="#F27324" stroke-width="4" stroke-miterlimit="10" d="M99.9,67.3H85.6v-4.9h21.2V120h-7V67.3z"/>
		<path fill="#F27324" stroke="#F27324" stroke-width="4" stroke-miterlimit="10" d="M124.2,99.3c0-16.1,10.3-21.7,19.8-21.7
			c17.7,0,19.9,14.9,19.9,21.7c0,16.1-10.3,21.6-19.9,21.6C135.3,120.8,124.2,116,124.2,99.3z M156.9,99.3c0-7.1-2-16.8-12.9-16.8
			c-11,0-12.8,9.6-12.8,16.8c0,7.1,1.9,16.7,12.8,16.7C155,115.9,156.9,106.4,156.9,99.3z"/>
		<path fill="#F27324" stroke="#F27324" stroke-width="4" stroke-miterlimit="10" d="M216.1,77.6c-1.7,5-2.2,10.2-2.2,15.5v22.8
			c0,13-11.4,16.7-18.6,16.7c-5.9,0-12-2.8-15.9-6.4l5-3.6c2.8,3,7.1,5,11.8,5c7.4,0,10.8-5.6,10.8-11.5V113c-3.8,2.1-7,3.5-12,3.5
			c-12.3,0-18.2-9.7-18.2-18.7c0-9.9,5.2-20.2,19.1-20.2c4.8,0,8.4,1.3,12.3,3.6l1.3-3.6H216.1z M206.9,87.6
			c-2.2-2.8-6.6-5.1-11-5.1c-9.3,0-12.2,8.2-12.2,14.6c0,8.1,4.7,14.5,11.5,14.5c4.3,0,9.5-2.4,11.6-5.4V87.6z"/>
	</g>
</g>
</svg>
