<?xml version="1.0" encoding="utf-8"?>
<!-- Generator: Adobe Illustrator 19.1.0, SVG Export Plug-In . SVG Version: 6.00 Build 0)  -->
<svg version="1.1" id="Layer_1" xmlns="http://www.w3.org/2000/svg" xmlns:xlink="http://www.w3.org/1999/xlink" x="0px" y="0px"
	 viewBox="0 0 471 170.8" enable-background="new 0 0 471 170.8" xml:space="preserve">
<g>
	<g>
		<polygon fill="#7BB1DB" points="282.3,0.7 272.8,0.7 237.7,57 202.6,0.7 193,0.7 193,170.2 202.6,170.2 237.7,113.8 272.8,170.2 
			282.4,170.2 282.3,170 		"/>
		<polygon fill="#958437" points="193,0.7 141,0.7 193,85.4 141,170.2 193,170.2 		"/>
		<polygon fill="#739833" points="334.5,0.7 282.3,0.7 282.3,170 282.4,170.2 334.5,170.1 282.4,85.4 		"/>
		<path fill="#C9D200" d="M408.7,0.7l-74.2,0l-52,84.7l52,84.7h0l0-37.4h87.9c36.9,0,47.9-29,47.9-54.2V58.6
			C470.3,25.5,458.3,0.7,408.7,0.7z M421.7,69.1c0,10-4.7,21.6-16.9,21.6h-70.3V42.7h65.8c15.7,0,21.4,6.5,21.4,18V69.1z"/>
		<polygon fill="#FFB500" points="193,85.4 141,0.7 140.9,0.7 140.9,103.1 52.8,0.7 0.7,0.7 0.7,170.2 52.8,170.1 52.8,67.8 
			141,170.2 		"/>
	</g>
</g>
<rect x="-82.8" y="-84.4" fill="none" width="637.8" height="340.2"/>
</svg>
