<?xml version="1.0" standalone="no"?>
<!DOCTYPE svg PUBLIC "-//W3C//DTD SVG 1.1//EN" "http://www.w3.org/Graphics/SVG/1.1/DTD/svg11.dtd" >
<svg xmlns="http://www.w3.org/2000/svg">
<metadata>
This is a custom SVG webfont generated by Font Squirrel.
Copyright   : Copyright  1989 1995 2002 Adobe Systems Incorporated  All Rights Reserved  1981 1995 2002 Heidelberger Druckmaschinen AG All rights reserved
Designer    : Adrian Frutiger
Foundry URL : httpwwwadobecomtype
</metadata>
<defs>
<font id="AvenirLTStd45BookOblique" horiz-adv-x="1138" >
<font-face units-per-em="2048" ascent="1548" descent="-500" />
<missing-glyph horiz-adv-x="569" />
<glyph unicode=" "  horiz-adv-x="569" />
<glyph unicode="&#x09;" horiz-adv-x="569" />
<glyph unicode="&#xa0;" horiz-adv-x="569" />
<glyph unicode="!" horiz-adv-x="569" d="M188 98q6 45 42 78t83 33t75 -33q23 -27 23 -62q0 -8 -1 -16q-6 -45 -43 -77.5t-84 -32.5t-74 32q-22 27 -22 62q0 8 1 16zM266 393l150 1057h147l-149 -1057h-148z" />
<glyph unicode="&#x22;" horiz-adv-x="1062" d="M457 969l69 481h123l-69 -481h-123zM754 969l69 481h123l-69 -481h-123z" />
<glyph unicode="#" d="M133 438l19 123h225l90 332h-221l18 123h240l121 434h125l-121 -434h272l121 434h125l-121 -434h184l-18 -123h-203l-90 -332h195l-19 -123h-211l-123 -438h-125l123 438h-272l-123 -438h-125l123 438h-209zM502 561h272l90 332h-272z" />
<glyph unicode="$" d="M115 188l135 88q53 -82 135 -130q79 -46 144 -46h6l79 572q-168 53 -264 146q-78 76 -78 200q0 29 4 61q23 170 156 278.5t295 121.5l21 143h98l-19 -139q227 0 355 -174l-129 -99q-31 70 -99 105q-64 33 -138 33h-9l-76 -547q86 -33 143.5 -62.5t117 -81t82.5 -125.5 q15 -48 16 -105q0 -30 -5 -62q-25 -168 -156.5 -278t-314.5 -120l-20 -139h-98l18 135q-135 8 -241.5 70.5t-157.5 154.5zM424 1083q-2 -17 -2 -33q0 -73 46 -120q56 -57 169 -101l72 517q-109 -8 -189 -82.5t-96 -180.5zM633 102q61 0 120.5 21.5t115 84t69.5 157.5 q3 20 3 39q0 162 -232 239z" />
<glyph unicode="%" horiz-adv-x="1705" d="M236 1116q20 150 139 254.5t270.5 104.5t241.5 -104q73 -84 73 -200q0 -26 -4 -55q-23 -152 -141.5 -255t-270 -103t-241.5 103q-72 83 -72 196q0 29 5 59zM336 -8l1139 1521l96 -55l-1135 -1521zM358 1116q-3 -20 -2 -38q0 -76 47 -130q59 -68 157.5 -67.5t178.5 68 t95 167.5q3 19 2 37q0 76 -49 131q-60 68 -158.5 68t-177.5 -68t-93 -168zM954 334q23 152 141.5 255t270.5 103t242 -103q72 -83 72 -196q0 -28 -5 -59q-23 -152 -141.5 -255.5t-270 -103.5t-241.5 104q-72 83 -72 196q-1 29 4 59zM1077 334q-3 -19 -3 -37q0 -76 49 -131 q60 -68 158.5 -68t177.5 67.5t93 168.5q3 19 3 37q0 76 -49 131q-60 68 -158.5 67.5t-177.5 -68t-93 -167.5z" />
<glyph unicode="&#x26;" horiz-adv-x="1441" d="M152 377q37 270 389 428q-124 159 -125 295q0 23 4 45q20 158 136 250t273 92q152 0 239 -86q70 -70 70 -184q0 -27 -3 -56q-18 -127 -117.5 -214t-255.5 -163l285 -344l247 344h166l-330 -448l279 -336h-209l-174 213q-113 -125 -225.5 -187.5t-253.5 -62.5 q-188 0 -305 113q-95 92 -95 233q0 33 5 68zM311 375q-4 -23 -3 -44q0 -90 63 -154q78 -79 198 -79q109 0 194 54.5t183 158.5l-325 402q-158 -82 -227 -154.5t-83 -183.5zM565 1139q-2 -13 -2 -27q0 -54 33 -115q41 -76 84 -118l46 23l51 27q13 7 46 26.5t48.5 31.5 t40 34.5t37 42t23.5 45.5t15 52q2 16 3 32q0 63 -42 105q-51 53 -135 54q-92 0 -163 -58.5t-85 -154.5z" />
<glyph unicode="'" horiz-adv-x="532" d="M340 969l70 481h122l-69 -481h-123z" />
<glyph unicode="(" horiz-adv-x="532" d="M193 590q35 240 144 480.5t281 436.5l101 -69q-172 -225 -264.5 -416t-126.5 -432q-16 -113 -16 -215q0 -111 19 -206q36 -183 142 -415l-119 -82q-111 190 -152 430q-24 135 -24 272q1 107 15 216z" />
<glyph unicode=")" horiz-adv-x="532" d="M-20 -258q172 225 264 415.5t125 432.5q17 117 17 221q0 107 -18 200q-36 183 -143 414l119 82q111 -190 153 -430q23 -131 23 -264q0 -111 -16 -223q-33 -240 -142.5 -480.5t-281.5 -437.5z" />
<glyph unicode="*" horiz-adv-x="909" d="M223 1135l60 114l272 -92l43 293h123l-43 -293l301 92l27 -114l-301 -93l149 -247l-111 -74l-151 254l-225 -254l-86 74l219 247z" />
<glyph unicode="+" horiz-adv-x="1363" d="M238 559l18 123h461l63 461h123l-63 -461h460l-18 -123h-461l-63 -461h-123l63 461h-460z" />
<glyph unicode="," horiz-adv-x="569" d="M92 -287l205 482h166l-234 -482h-137z" />
<glyph unicode="-" horiz-adv-x="681" d="M137 424l19 135h526l-18 -135h-527z" />
<glyph unicode="." horiz-adv-x="569" d="M188 98q6 45 42 78t83 33t75 -33q23 -27 23 -62q0 -8 -1 -16q-6 -45 -43 -77.5t-84 -32.5t-74 32q-22 27 -22 62q0 8 1 16z" />
<glyph unicode="/" horiz-adv-x="757" d="M10 2l830 1485l110 -41l-827 -1483z" />
<glyph unicode="0" d="M165 557q3 80 15 168q14 109 39 203t72 198.5t109.5 178t159.5 122t216 48.5t203 -48.5t126 -122t60 -178.5q16 -90 16 -172v-27q-3 -95 -17.5 -202t-39 -202t-71.5 -199.5t-109.5 -178t-161 -122t-217.5 -48.5q-100 0 -176 33t-119 91.5t-69.5 129t-32.5 159.5 q-4 59 -4 115q0 27 1 54zM328 725q-18 -125 -18 -224q0 -390 276 -390q342 0 430 614q16 119 16 215q0 399 -274 399q-348 0 -430 -614z" />
<glyph unicode="1" d="M375 1147l411 303h132l-205 -1450h-148l178 1266l-292 -230z" />
<glyph unicode="2" d="M98 0l25 170l659 588q63 57 102.5 97t79.5 104.5t48 125.5q3 22 3 43q0 87 -57 143q-70 69 -190 68q-109 0 -196 -61t-126 -166l-153 16q53 160 184 253.5t299 93.5q186 0 298 -100q91 -81 92 -216q0 -30 -5 -61q-10 -80 -43 -149.5t-92 -138.5t-103 -110l-126 -112 l-521 -453h762l-18 -135h-922z" />
<glyph unicode="3" d="M115 268l164 47q23 -104 89 -154t195 -50q127 0 226.5 80.5t115.5 205.5q4 28 4 53q0 114 -76 172q-93 71 -253 70h-64l19 135h75q139 0 237.5 65.5t117.5 201.5q3 25 3 46q0 83 -48 135q-61 65 -189 64q-184 0 -299 -159l-121 65q160 229 434 230q178 0 285 -102 q87 -82 87 -213q0 -30 -5 -62q-14 -115 -98 -207t-193 -125l4 -4q121 -27 184 -129q48 -79 48 -179q0 -29 -4 -61q-27 -195 -176.5 -306.5t-346.5 -111.5q-341 0 -415 293z" />
<glyph unicode="4" d="M127 344l23 168l718 938h189l-137 -971h208l-18 -135h-209l-49 -344h-147l49 344h-627zM268 479h504l115 824h-4z" />
<glyph unicode="5" d="M131 233l154 64q31 -86 98.5 -136t161.5 -50q137 0 244.5 94t128.5 229q4 29 3 57q0 115 -70 192q-87 95 -243 95q-152 0 -311 -80l121 752h739l-20 -135h-594l-70 -436q92 35 201 34q203 0 312 -132q87 -105 87 -252q0 -39 -6 -80q-29 -209 -186.5 -341.5t-368.5 -132.5 q-139 0 -240.5 66.5t-140.5 191.5z" />
<glyph unicode="6" d="M158 424q27 184 180 389l481 637h174l-483 -623l4 -4q76 49 207 49q190 0 298 -127q86 -102 86 -246q0 -36 -5 -75q-27 -199 -178.5 -324t-356.5 -125t-319 125q-93 101 -93 252q0 35 5 72zM305 424q-4 -28 -4 -55q0 -101 63 -170q79 -88 222 -88t244.5 87t121.5 226 q4 29 5 55q0 101 -62 170q-78 88 -221.5 88t-246 -87t-122.5 -226z" />
<glyph unicode="7" d="M221 0l780 1315h-706l20 135h861l-21 -135l-768 -1315h-166z" />
<glyph unicode="8" d="M166 387q20 141 108 244.5t215 136.5v4q-90 33 -138 123q-37 69 -37 151q0 24 3 50q25 168 158 273.5t301 105.5t273 -106q85 -85 84 -212q0 -30 -5 -61q-14 -111 -87.5 -201t-174.5 -123v-4q117 -33 177 -136q45 -77 46 -176q0 -33 -6 -69q-27 -184 -178 -298t-340 -114 q-190 0 -308 115q-96 94 -96 232q0 31 5 65zM315 408q-4 -26 -3 -50q0 -96 60 -163q75 -84 214 -84t236.5 84t115.5 213q4 26 4 49q0 96 -60 164q-75 84 -214.5 84t-237 -84t-115.5 -213zM463 1083q-3 -20 -3 -39q0 -85 52 -144q63 -73 174 -73t195 73t98 183q3 23 3 44 q0 82 -50 140q-63 73 -174 72.5t-195 -73t-100 -183.5z" />
<glyph unicode="9" d="M242 1026q29 199 179 324t355 125t321 -125q93 -100 92 -248q0 -37 -5 -76q-27 -188 -178 -389l-482 -637h-174l484 623l-5 4q-76 -49 -206 -49q-190 0 -299 127q-87 102 -88 247q1 36 6 74zM389 1026q-4 -27 -3 -51q0 -105 63 -175q78 -87 221 -87t245.5 88t120.5 225 q4 29 5 55q0 101 -62 170q-78 88 -221.5 88t-246 -87t-122.5 -226z" />
<glyph unicode=":" horiz-adv-x="569" d="M188 98q6 45 42 78t83 33t75 -33q23 -27 23 -62q0 -8 -1 -16q-6 -45 -43 -77.5t-84 -32.5t-74 32q-22 27 -22 62q0 8 1 16zM295 858q6 45 42 78t83 33t75 -33q23 -27 22 -62q0 -8 -1 -16q-6 -45 -43 -77.5t-84 -32.5t-74 32q-22 27 -21 62q0 8 1 16z" />
<glyph unicode=";" horiz-adv-x="569" d="M92 -287l205 482h166l-234 -482h-137zM313 858q6 45 42 78t83 33t75 -33q23 -27 23 -62q0 -8 -1 -16q-6 -45 -43 -77.5t-84.5 -32.5t-73.5 32q-22 27 -22 62q0 8 1 16z" />
<glyph unicode="&#x3c;" horiz-adv-x="1363" d="M240 573l14 95l1112 487l-16 -123l-936 -411l819 -412l-16 -123z" />
<glyph unicode="=" horiz-adv-x="1363" d="M217 406l16 122h1045l-16 -122h-1045zM260 713l16 123h1045l-16 -123h-1045z" />
<glyph unicode="&#x3e;" horiz-adv-x="1363" d="M172 86l16 123l938 412l-821 411l17 123l976 -487l-14 -95z" />
<glyph unicode="?" horiz-adv-x="987" d="M256 1135q45 158 171 249t288 91q170 0 266 -96q78 -77 78 -202q0 -29 -4 -61q-14 -96 -58.5 -167.5t-99.5 -115.5l-110 -87q-54 -42 -97 -104t-55 -144l-14 -105h-148l25 170q10 61 52 117.5t96 101.5l110 90q55 45 97 104.5t52 127.5q3 21 3 40q0 77 -46 130 q-57 66 -164 65q-102 0 -180 -61t-110 -162zM408 98q6 45 41.5 78t83 33t74.5 -33q23 -27 23 -62q0 -8 -1 -16q-6 -45 -43 -77.5t-84 -32.5t-74 32q-22 27 -22 62z" />
<glyph unicode="@" horiz-adv-x="1638" d="M190 725q45 319 301.5 540.5t571.5 221.5q289 0 467 -178q148 -148 147 -360q0 -44 -6 -91q-35 -246 -215 -411.5t-338 -165.5q-63 0 -95 29.5t-30 90.5h-4q-135 -121 -274 -120q-131 0 -199 85q-53 67 -53 165q0 27 4 57q33 223 193.5 400t367.5 177q176 0 209 -168h4 l64 129h114l-252 -577q-25 -51 -34 -105q-2 -16 10 -28.5t33 -12.5q109 0 228.5 140.5t141.5 306.5q6 39 6 76q0 174 -128 299q-155 152 -377 151q-262 0 -480.5 -196.5t-253.5 -454.5q-7 -48 -6 -93q0 -201 132 -362q163 -197 425 -196q154 0 304.5 66.5t248.5 181.5h129 q-121 -168 -309 -263.5t-389 -95.5q-315 0 -509 221q-157 179 -157 424q-1 57 8 117zM604 600q-3 -18 -2 -34q0 -63 37 -107q47 -55 131 -56q125 0 241.5 147.5t135.5 287.5q3 20 3 38q0 61 -32 107q-41 59 -106 59q-143 -6 -265.5 -147t-142.5 -295z" />
<glyph unicode="A" horiz-adv-x="1404" d="M0 0l836 1450h143l426 -1450h-172l-107 381h-741l-213 -381h-172zM459 516h628l-204 762z" />
<glyph unicode="B" horiz-adv-x="1290" d="M197 0l204 1450h433q203 0 321 -87q97 -71 97 -211q0 -31 -5 -67q-16 -119 -96 -204.5t-203 -112.5l-2 -4q152 -12 225 -109q58 -75 58 -188q0 -31 -4 -66q-6 -37 -21.5 -78.5t-57.5 -102t-102.5 -106.5t-166 -80t-238.5 -34h-442zM363 135h282q170 0 286 68.5t134 206.5 q4 28 4 53q0 102 -65 159q-82 71 -261 70h-301zM459 815h297q121 0 217 62.5t112 191.5q2 14 2 28q0 18 -3 37q-5 34 -27.5 78.5t-86 73.5t-159.5 29h-283z" />
<glyph unicode="C" horiz-adv-x="1441" d="M201 725q45 330 290.5 546t571.5 216q143 0 269 -57.5t200 -172.5l-141 -96q-35 74 -135.5 132.5t-211.5 58.5q-270 0 -458.5 -183.5t-225.5 -443.5q-8 -55 -7 -107q0 -192 108 -336q137 -183 407 -184q274 0 447 217l108 -86q-92 -117 -246.5 -191.5t-328.5 -74.5 q-326 0 -509 216q-147 173 -147 420q0 61 9 126z" />
<glyph unicode="D" horiz-adv-x="1517" d="M176 0l205 1450h481q111 0 214.5 -28.5t193.5 -88t153.5 -143.5t90.5 -205q16 -69 16 -145q0 -56 -8 -115q-33 -229 -173.5 -399t-321.5 -248t-370 -78h-481zM342 135h287q313 0 505.5 173t227.5 417q6 44 6 86q0 69 -16 133q-27 104 -92.5 188.5t-185.5 133.5t-279 49 h-287z" />
<glyph unicode="E" horiz-adv-x="1214" d="M197 0l204 1450h899l-20 -135h-752l-69 -494h702l-18 -135h-703l-78 -551h777l-19 -135h-923z" />
<glyph unicode="F" d="M197 0l204 1450h875l-21 -135h-727l-69 -494h676l-19 -135h-676l-96 -686h-147z" />
<glyph unicode="G" horiz-adv-x="1593" d="M201 725q45 330 290.5 546t571.5 216q332 0 498 -195l-127 -108q-135 168 -390 168q-270 0 -458.5 -183.5t-225.5 -443.5q-8 -55 -7 -107q0 -192 108 -336q137 -183 407 -184q221 0 416 103l68 485h-346l18 135h494l-99 -710q-270 -147 -571 -148q-326 0 -509 216 q-147 173 -147 420q0 61 9 126z" />
<glyph unicode="H" horiz-adv-x="1478" d="M197 0l204 1450h148l-90 -629h790l90 629h148l-205 -1450h-147l96 686h-791l-96 -686h-147z" />
<glyph unicode="I" horiz-adv-x="540" d="M197 0l204 1450h148l-205 -1450h-147z" />
<glyph unicode="J" horiz-adv-x="987" d="M66 266l153 31q16 -199 203 -199q256 0 305 361l141 991h148l-150 -1053q-10 -78 -41.5 -150.5t-85 -138t-142.5 -105.5t-200 -40q-152 0 -239.5 78t-91.5 225z" />
<glyph unicode="K" horiz-adv-x="1290" d="M197 0l204 1450h148l-90 -629h20l772 629h211l-825 -657l661 -793h-217l-608 748h-24l-105 -748h-147z" />
<glyph unicode="L" horiz-adv-x="1024" d="M197 0l204 1450h148l-187 -1315h676l-18 -135h-823z" />
<glyph unicode="M" horiz-adv-x="1822" d="M197 0l204 1450h226l323 -1180l656 1180h225l-205 -1450h-147l176 1253h-4l-701 -1253h-78l-348 1253h-4l-176 -1253h-147z" />
<glyph unicode="N" horiz-adv-x="1593" d="M197 0l204 1450h185l690 -1229h4l174 1229h148l-205 -1450h-185l-690 1241h-4l-174 -1241h-147z" />
<glyph unicode="O" horiz-adv-x="1708" d="M201 725q45 330 290.5 546t571.5 216t510 -216q148 -174 148 -421q0 -60 -9 -125q-45 -330 -291.5 -546t-572.5 -216t-509 216q-147 173 -147 420q0 61 9 126zM360 725q-8 -55 -7 -107q0 -192 108 -336q137 -183 407.5 -183.5t459 183t224.5 443.5q8 55 8 107 q0 192 -108 336q-137 183 -407.5 183.5t-459 -183t-225.5 -443.5z" />
<glyph unicode="P" horiz-adv-x="1175" d="M197 0l204 1450h422q225 0 337 -98q90 -79 90 -219q0 -33 -5 -70q-27 -193 -167 -291t-365 -98h-275l-94 -674h-147zM459 809h237q352 0 389 254q3 21 3 40q0 87 -61 143q-75 69 -261 69h-238z" />
<glyph unicode="Q" horiz-adv-x="1708" d="M203 743q45 322 283.5 533t554 211t493.5 -211q142 -168 142 -407q0 -60 -9 -126q-59 -424 -424 -604l-2 -4h438l-18 -135h-830q-315 0 -494 211q-143 169 -143 408q0 59 9 124zM362 743q-7 -53 -7 -102q0 -187 104 -328q131 -178 391 -178q258 0 440.5 178.5 t216.5 429.5q7 53 8 103q0 187 -104 328q-131 178 -389 178q-260 0 -442.5 -178.5t-217.5 -430.5z" />
<glyph unicode="R" horiz-adv-x="1214" d="M197 0l204 1450h447q225 0 337 -98q90 -79 90 -219q0 -33 -5 -70q-23 -154 -134.5 -257.5t-289.5 -117.5l321 -688h-180l-303 674h-246l-94 -674h-147zM459 809h262q352 0 389 254q3 21 3 40q0 87 -61 143q-75 69 -261 69h-263z" />
<glyph unicode="S" d="M127 178l147 96q37 -82 116 -129t190 -47q119 0 225 72t123 192q3 22 3 42q0 55 -25 98q-34 57 -94 89t-136 56.5t-151.5 54t-135 71.5t-90.5 118q-20 49 -20 113q0 34 6 71q18 133 101 229.5t192.5 139.5t232.5 43q256 0 385 -176l-143 -101q-74 141 -260 142 q-127 0 -228.5 -67.5t-118.5 -194.5q-2 -19 -2 -37q0 -56 25 -98q33 -54 94.5 -85.5t136 -57.5t150.5 -56.5t135 -72.5t89 -118q20 -51 20 -116q0 -31 -4 -66q-27 -188 -190 -304t-347 -116q-299 0 -426 215z" />
<glyph unicode="T" horiz-adv-x="1175" d="M213 1315l20 135h1119l-21 -135h-485l-184 -1315h-148l184 1315h-485z" />
<glyph unicode="U" horiz-adv-x="1404" d="M240 388q2 79 8 153l129 909h147l-127 -893q-8 -58 -8 -108q0 -54 9 -100q17 -89 53 -135t89.5 -73.5t93.5 -35t83 -7.5t85 7.5t103.5 35t109.5 73.5t90 135t58 208l127 893h148l-129 -909q-10 -80 -34 -154t-72 -153.5t-112.5 -137t-167 -95.5t-227.5 -38t-217 37 t-138 97.5t-75 135.5q-27 71 -27 145q1 5 1 10z" />
<glyph unicode="V" horiz-adv-x="1251" d="M199 1450h163l287 -1229h4l650 1229h159l-770 -1450h-147z" />
<glyph unicode="W" horiz-adv-x="1933" d="M205 1450h164l172 -1241h4l540 1241h177l188 -1241h4l520 1241h164l-633 -1450h-172l-190 1241h-4l-539 -1241h-172z" />
<glyph unicode="X" horiz-adv-x="1290" d="M12 0l637 762l-391 688h199l313 -580l487 580h185l-590 -688l426 -762h-195l-350 657l-536 -657h-185z" />
<glyph unicode="Y" horiz-adv-x="1175" d="M176 1450h184l336 -684l529 684h184l-659 -825l-88 -625h-148l88 625z" />
<glyph unicode="Z" d="M47 0l16 123l1016 1192h-835l20 135h1020l-18 -123l-1014 -1192h858l-18 -135h-1045z" />
<glyph unicode="[" horiz-adv-x="532" d="M88 -319l256 1818h332l-17 -110h-196l-223 -1598h196l-16 -110h-332z" />
<glyph unicode="\" horiz-adv-x="757" d="M213 1446l123 41l412 -1485l-125 -39z" />
<glyph unicode="]" horiz-adv-x="532" d="M23 -319l16 110h197l223 1598h-197l17 110h331l-256 -1818h-331z" />
<glyph unicode="^" horiz-adv-x="1363" d="M244 563l594 887h98l344 -887h-127l-289 740l-493 -740h-127z" />
<glyph unicode="_" horiz-adv-x="1024" d="M-37 -256l14 102h1024l-14 -102h-1024z" />
<glyph unicode="`" horiz-adv-x="491" d="M184 1450h187l161 -295h-120z" />
<glyph unicode="a" horiz-adv-x="1062" d="M135 256q12 88 62.5 153.5t114 98.5t154.5 52.5t157.5 23.5t152.5 4h68l4 24q4 29 4 56q0 193 -215 192q-168 0 -309 -112l-68 96q156 139 424 139q152 0 239 -87q69 -69 69 -188q0 -31 -5 -65l-59 -428q-14 -102 -15 -215h-131q-1 16 -1 32q0 58 12 124h-5 q-137 -180 -364 -181q-137 0 -222 74q-70 61 -70 161q0 22 3 46zM285 274q-2 -15 -2 -28q0 -67 50 -104q60 -44 152 -44q141 0 227.5 87t106.5 223l10 69h-69q-446 0 -475 -203z" />
<glyph unicode="b" horiz-adv-x="1251" d="M147 0l218 1548h135l-105 -749h4q76 90 184.5 137t213.5 47q223 0 347 -143q99 -115 99 -277q0 -40 -6 -84q-31 -217 -194.5 -360.5t-387.5 -143.5q-104 0 -200.5 47.5t-145.5 137.5h-4l-22 -160h-136zM344 479q-4 -31 -4 -61q0 -122 75 -210q93 -110 259 -110 q164 0 277.5 107.5t138.5 273.5q5 35 4 67q0 120 -66 206q-84 109 -248 108q-166 0 -289.5 -109.5t-146.5 -271.5z" />
<glyph unicode="c" horiz-adv-x="987" d="M166 479q31 221 189 364q156 140 382 140h6q213 -4 328 -166l-123 -84q-27 55 -86 91t-135 36h-6q-160 0 -270 -105q-113 -108 -138 -276q-6 -38 -5 -73q0 -119 64 -202q81 -106 242 -106h7q76 0 144.5 36t111.5 91l100 -84q-162 -162 -375 -166h-6q-227 0 -343 141 q-93 113 -93 275q0 42 6 88z" />
<glyph unicode="d" horiz-adv-x="1251" d="M150 479q31 217 193.5 360.5t385.5 143.5q104 0 201.5 -47t146.5 -137h4l105 749h135l-217 -1548h-135l22 160h-4q-76 -90 -185.5 -137.5t-213.5 -47.5q-223 0 -346 144q-98 115 -99 276q1 41 7 84zM297 479q-5 -35 -5 -67q0 -120 66 -205q84 -109 248 -109 q166 0 290 109.5t146 271.5q4 31 5 61q0 122 -75 211q-93 110 -259 109q-164 0 -277.5 -107.5t-138.5 -273.5z" />
<glyph unicode="e" d="M166 479q31 215 189.5 359.5t363.5 144.5q211 -2 316 -139q83 -108 83 -257q0 -40 -6 -83l-10 -62h-799q-1 -13 -1 -25q0 -129 79 -219q86 -99 227 -100q100 0 188.5 48.5t141.5 117.5l92 -86q-188 -203 -440 -203q-213 0 -334 144q-96 114 -96 275q0 41 6 85zM324 553 h647q4 28 4 55q1 102 -57 168q-72 84 -216 84q-131 0 -246.5 -94t-131.5 -213z" />
<glyph unicode="f" horiz-adv-x="606" d="M145 836l19 122h203l36 263q49 352 371 352q49 0 115 -14l-41 -123q-57 14 -103 14q-104 0 -148 -63.5t-60 -182.5l-35 -246h227l-18 -122h-228l-116 -836h-136l117 836h-203z" />
<glyph unicode="g" horiz-adv-x="1251" d="M78 -299l117 106q49 -82 139 -129t203 -47q193 0 297 103.5t129 273.5l22 172h-4q-143 -180 -383 -180q-209 0 -335 139q-103 113 -102 273q0 36 5 75q31 211 188.5 353.5t368.5 142.5q236 0 346 -184h4l23 159h135l-133 -950q-12 -90 -45 -168t-96.5 -157.5t-177 -127 t-267.5 -47.5q-280 0 -434 193zM315 492q-5 -31 -4 -60q0 -114 70 -201q88 -109 237 -108q154 0 277 103.5t139 265.5q5 33 5 63q0 115 -67 199q-85 106 -249 106q-150 0 -267.5 -108t-140.5 -260z" />
<glyph unicode="h" d="M147 0l218 1548h135l-105 -743h4q55 78 152.5 128t193.5 50q180 0 257 -97.5t53 -277.5l-86 -608h-135l73 530q25 168 -21 249t-192 81q-16 0 -41.5 -4t-76 -25.5t-92.5 -57.5t-79.5 -109.5t-52.5 -171.5l-69 -492h-136z" />
<glyph unicode="i" horiz-adv-x="491" d="M178 0l135 958h136l-136 -958h-135zM334 1327q6 41 40 69.5t72.5 28.5t64.5 -28q21 -23 21 -55q0 -7 -2 -15q-6 -41 -39.5 -69.5t-72.5 -28.5t-65 28q-21 23 -20 55q0 7 1 15z" />
<glyph unicode="j" horiz-adv-x="491" d="M-129 -471l35 117l6 -2q41 -12 70 -13q61 0 100 34t51 72t21 95l159 1126h136l-162 -1148q-20 -141 -80 -209q-80 -92 -234 -93q-55 1 -102 21zM334 1327q6 41 40 69.5t72.5 28.5t64.5 -28q21 -23 21 -55q0 -7 -2 -15q-6 -41 -39.5 -69.5t-72.5 -28.5t-65 28 q-21 23 -20 55q0 7 1 15z" />
<glyph unicode="k" horiz-adv-x="987" d="M147 0l218 1548h135l-144 -1022l514 432h203l-538 -438l454 -520h-209l-426 504l-71 -504h-136z" />
<glyph unicode="l" horiz-adv-x="491" d="M178 0l217 1548h135l-217 -1548h-135z" />
<glyph unicode="m" horiz-adv-x="1744" d="M147 0l105 745q6 39 20 213h146l-21 -145h4q57 80 149.5 125t182.5 45q229 0 279 -199q53 90 148 144.5t194 54.5q180 0 257 -97.5t52 -277.5l-86 -608h-135l78 559q23 154 -20.5 227.5t-178.5 73.5q-139 0 -219 -100.5t-101 -249.5l-71 -510h-135l77 559 q23 154 -20 227.5t-178 73.5q-18 0 -42 -4t-71 -25.5t-85 -57.5t-73.5 -109.5t-50.5 -171.5l-69 -492h-136z" />
<glyph unicode="n" d="M147 0l105 748q4 27 20 210h140q-2 -68 -17 -153h4q55 78 152.5 128t193.5 50q180 0 257 -97q58 -74 59 -195q0 -39 -6 -83l-86 -608h-135l73 530q9 58 9 107q0 90 -30 142q-46 81 -192 81q-16 0 -41.5 -4t-76 -25.5t-92.5 -57.5t-79.5 -109.5t-52.5 -171.5l-69 -492 h-136z" />
<glyph unicode="o" horiz-adv-x="1214" d="M166 479q31 217 193.5 360.5t383.5 143.5q223 0 348 -143q99 -115 99 -277q0 -40 -6 -84q-31 -217 -195 -360.5t-387 -143.5q-221 0 -344 144q-98 115 -98 276q0 41 6 84zM313 479q-5 -35 -4 -67q0 -120 65 -205q83 -109 246.5 -109t277.5 107.5t138 273.5q5 35 5 67 q0 120 -66 206q-84 109 -248 108q-162 0 -276.5 -108.5t-137.5 -272.5z" />
<glyph unicode="p" horiz-adv-x="1251" d="M66 -590l217 1548h135l-23 -159h4q76 90 184.5 137t213.5 47q223 0 347 -143q99 -115 99 -277q0 -40 -6 -84q-31 -217 -194.5 -360.5t-387.5 -143.5q-104 0 -200.5 47.5t-145.5 137.5h-4l-104 -750h-135zM344 479q-4 -31 -4 -61q0 -122 75 -210q93 -110 259 -110 q164 0 277.5 107.5t138.5 273.5q5 35 4 67q0 120 -66 206q-84 109 -248 108q-166 0 -289.5 -109.5t-146.5 -271.5z" />
<glyph unicode="q" horiz-adv-x="1251" d="M150 479q31 217 193.5 360.5t385.5 143.5q104 0 201.5 -47t146.5 -137h4l23 159h135l-217 -1548h-135l104 750h-4q-76 -90 -185.5 -137.5t-213.5 -47.5q-223 0 -346 144q-98 115 -99 276q1 41 7 84zM297 479q-5 -35 -5 -67q0 -120 66 -205q84 -109 248 -109 q166 0 290 109.5t146 271.5q4 31 5 61q0 122 -75 211q-93 110 -259 109q-164 0 -277.5 -107.5t-138.5 -273.5z" />
<glyph unicode="r" horiz-adv-x="679" d="M162 0l92 659q6 39 10 80t11 104l14 115h133l-25 -178h4q45 86 131 144.5t203 58.5q57 0 101 -12l-48 -133q-25 10 -75 10q-141 0 -232.5 -97.5t-107.5 -209.5l-76 -541h-135z" />
<glyph unicode="s" horiz-adv-x="872" d="M90 162l129 80q72 -143 232 -144q92 0 163.5 41t83.5 119l2 21q0 50 -35 77q-42 33 -128 56l-127 30q-212 55 -212 213q0 19 3 39q18 141 131.5 215t261.5 74q236 0 297 -172l-133 -80q-47 129 -189 129q-80 0 -144.5 -36t-74.5 -107q-1 -11 -1 -21q0 -48 32 -75 q39 -33 137 -56l133 -33q98 -25 155 -94q45 -56 45 -129q0 -19 -3 -39q-23 -147 -141.5 -221t-274.5 -74q-244 1 -342 187z" />
<glyph unicode="t" horiz-adv-x="679" d="M145 836l19 122h203l36 271h136l-37 -271h276l-18 -122h-277l-77 -566q-5 -33 -5 -58q0 -54 20 -78q30 -36 99 -36q74 0 144 37l-11 -125q-82 -35 -188 -35q-96 0 -159 58q-47 43 -47 134q0 30 5 64l84 605h-203z" />
<glyph unicode="u" d="M197 350l86 608h135l-76 -530q-7 -55 -7 -101q0 -94 31 -148q46 -81 191 -81q16 0 42 4t76 26t92 57.5t80 109.5t52 172l70 491h135l-107 -747l-5 -58l-7 -82l-6 -71h-139q2 68 16 154h-4q-57 -78 -154.5 -128.5t-193.5 -50.5q-314 0 -314 287q1 41 7 88z" />
<glyph unicode="v" horiz-adv-x="987" d="M164 958h162l190 -806h4l420 806h154l-525 -958h-151z" />
<glyph unicode="w" horiz-adv-x="1478" d="M164 958h160l110 -778h4l367 778h139l146 -778h4l331 778h160l-438 -958h-152l-143 786h-4l-365 -786h-151z" />
<glyph unicode="x" horiz-adv-x="987" d="M0 0l467 512l-285 446h185l215 -358l305 358h168l-398 -446l330 -512h-184l-262 420l-369 -420h-172z" />
<glyph unicode="y" horiz-adv-x="987" d="M-12 -477l32 131q39 -23 101 -23q68 0 115 42t94 130l94 185l-256 970h170l188 -792l406 792h164l-650 -1208q-63 -121 -141 -181.5t-194 -60.5q-78 1 -123 15z" />
<glyph unicode="z" horiz-adv-x="872" d="M47 0l14 98l664 738h-532l18 122h729l-14 -98l-666 -737h582l-17 -123h-778z" />
<glyph unicode="{" horiz-adv-x="532" d="M98 528l19 123q74 0 136 62.5t77 165.5l51 364q39 256 258 256h131l-18 -123h-115q-47 0 -74.5 -29.5t-36 -59.5t-14.5 -81l-49 -352q-18 -129 -90 -191.5t-129 -70.5l-2 -4q57 -8 110 -70.5t35 -191.5l-49 -353q-16 -59 -2 -114.5t82 -55.5h114l-18 -122h-131 q-98 0 -151.5 60t-32.5 196l51 364q12 102 -33 164.5t-119 62.5z" />
<glyph unicode="|" horiz-adv-x="739" d="M414 -567v2273h118v-2273h-118z" />
<glyph unicode="}" horiz-adv-x="532" d="M-72 -319l19 122h114q47 0 75 30t36 59.5t14 80.5l50 353q18 129 89.5 191.5t129.5 70.5l2 4q-57 8 -111 71q-40 46 -39 129q0 29 4 62l49 352q9 32 9 62q0 27 -7 53q-14 55 -81 55h-115l18 123h131q98 0 152 -60q38 -44 38 -127q0 -32 -5 -69l-51 -364q-3 -24 -4 -47 q0 -71 35 -118q46 -62 120 -63l-18 -123q-74 0 -137.5 -62.5t-75.5 -164.5l-52 -364q-39 -256 -258 -256h-131z" />
<glyph unicode="~" horiz-adv-x="1363" d="M262 569q47 55 84 90t98.5 68t122.5 33q68 0 103 -9.5t102 -50.5q8 -4 57.5 -36.5t81 -46t66.5 -13.5q104 0 225 150l74 -82q-47 -55 -84 -90t-98.5 -68t-122.5 -33q-68 0 -102.5 9.5t-102.5 50.5l-45 29q-33 22 -53.5 33t-50 22.5t-56.5 11.5q-104 0 -225 -150z" />
<glyph unicode="&#xa1;" horiz-adv-x="569" d="M145 -467l148 1057h147l-147 -1057h-148zM299 885q6 45 42 77.5t83 32.5t75 -32q23 -27 22 -62q0 -8 -1 -16q-6 -45 -43 -78t-84 -33t-74 33q-22 27 -21 61q0 9 1 17z" />
<glyph unicode="&#xa2;" d="M227 479q29 201 164 339t336 159l18 129h99l-19 -125q199 -10 308 -164l-123 -84q-25 51 -78 86t-123 39l-107 -758q150 10 236 125l100 -84q-152 -154 -354 -164l-16 -124h-99l19 129q-195 20 -292 158q-75 107 -75 251q-1 42 6 88zM375 479q-5 -37 -5 -71 q0 -102 46 -179q61 -102 188 -125l107 750q-133 -23 -224.5 -126.5t-111.5 -248.5z" />
<glyph unicode="&#xa3;" d="M172 0l16 123h209l80 563h-196l18 123h197l24 178q70 487 502 488q201 0 301 -123l-111 -105q-80 104 -213 105q-88 0 -154.5 -38t-101 -100.5t-52 -119t-25.5 -119.5l-23 -166h344l-18 -123h-344l-80 -563h518l-16 -123h-875z" />
<glyph unicode="&#xa4;" d="M106 305l123 109q-70 111 -69 236q0 37 6 75q20 172 151 311l-92 109l103 90l92 -109q156 109 323 109q166 0 291 -109l125 109l78 -90l-125 -109q72 -110 72 -236q0 -37 -6 -75q-23 -172 -154 -311l94 -109l-102 -90l-94 109q-156 -109 -322 -109q-168 0 -293 109 l-123 -109zM301 725q-4 -31 -4 -61q0 -121 74 -212q92 -114 247 -114q154 0 278 113.5t146 273.5q4 31 5 61q0 121 -74 212q-92 114 -246 114q-156 0 -279.5 -113.5t-146.5 -273.5z" />
<glyph unicode="&#xa5;" d="M201 1450h174l301 -696l498 696h174l-519 -700h252l-14 -111h-319l-19 -25l-22 -157h333l-14 -111h-334l-49 -346h-147l49 346h-334l14 111h334l23 157l-11 25h-319l14 111h254z" />
<glyph unicode="&#xa6;" horiz-adv-x="737" d="M414 -395v792h116v-792h-116zM414 739v797h116v-797h-116z" />
<glyph unicode="&#xa7;" d="M121 -49l143 65q18 -90 86 -134t160 -44q96 0 173 50.5t93 158.5q2 12 2 23q0 93 -119 157l-262 138q-151 79 -150 223q0 21 3 43q27 182 252 274q-76 57 -103 105q-23 46 -23 102q0 19 3 39q20 152 136 238t267 86q131 0 218 -54.5t108 -138.5l-129 -61 q-51 131 -203 131q-123 0 -181 -63.5t-67 -121.5q-2 -15 -2 -28q0 -48 28 -81q36 -42 114 -85l209 -115q161 -89 161 -240q0 -22 -4 -45q-23 -172 -215 -268q70 -53 93 -110q15 -38 16 -89q0 -27 -4 -57q-23 -162 -147 -248t-285 -86q-141 0 -240.5 59.5t-130.5 176.5z M398 608q5 -18 6 -29.5t12.5 -25.5t16.5 -22.5t22 -20.5l24 -18q8 -6 26.5 -15.5t27 -14.5t25.5 -13l26 -13l125 -65q61 25 114.5 75t61.5 107q2 15 2 29q0 61 -37 101q-45 50 -129 91l-109 53l-37 -14q-160 -63 -176 -172q-3 -8 -3 -17q0 -8 2 -16z" />
<glyph unicode="&#xa8;" horiz-adv-x="491" d="M131 1325q6 41 40 73t79 32t71 -32q21 -26 20 -57q0 -8 -1 -16q-6 -41 -40 -72.5t-79 -31.5t-70 31q-21 26 -21 58q0 7 1 15zM524 1325q6 41 40 73t79 32t71 -32q21 -26 20 -57q0 -8 -1 -16q-6 -41 -40 -72.5t-79 -31.5t-70 31q-21 26 -21 58q0 7 1 15z" />
<glyph unicode="&#xa9;" horiz-adv-x="1638" d="M152 721q47 326 303 546t573.5 220t511.5 -219q158 -178 158 -422q0 -57 -8 -117q-31 -215 -160 -391t-319.5 -275.5t-397.5 -99.5q-315 0 -511 219q-159 178 -159 423q1 56 9 116zM274 721q-8 -53 -7 -103q0 -206 130 -357q162 -187 432.5 -187t484.5 188.5t253 466.5 q8 53 7 103q0 207 -130 358q-162 186 -432.5 186t-484.5 -188t-253 -467zM496 725q29 207 169 336t347 129q152 0 247 -81t95 -230h-115q-4 88 -70.5 144t-171.5 56q-152 0 -255 -99t-124 -251q-4 -30 -4 -58q0 -109 63 -195q79 -108 224 -107q104 0 185 59t112 150h117 q-55 -147 -171 -233.5t-257 -86.5q-205 0 -313 132q-85 104 -84 253q0 39 6 82z" />
<glyph unicode="&#xaa;" horiz-adv-x="690" d="M209 1038q14 100 103 152.5t284 52.5h45l2 17q2 12 2 23q0 40 -23 64q-30 30 -94 29q-102 0 -190 -61l-55 76q102 84 256 84q137 0 189 -59q45 -50 45 -108q0 -9 -1 -18l-41 -280q-2 -8 -8 -129h-111l4 73h-2q-70 -86 -213 -86q-90 0 -147 44q-47 36 -47 99q0 13 2 27z M334 1044q-1 -6 -1 -11q0 -29 27 -46q33 -20 82 -20q162 0 187 178h-27q-254 -1 -268 -101z" />
<glyph unicode="&#xab;" horiz-adv-x="987" d="M176 492l346 428l86 -68l-284 -360l184 -361l-107 -68zM549 492l346 428l86 -68l-285 -360l185 -361l-107 -68z" />
<glyph unicode="&#xac;" horiz-adv-x="1363" d="M260 713l16 123h1045l-80 -570h-123l64 447h-922z" />
<glyph unicode="&#xad;" horiz-adv-x="681" d="M137 424l19 135h526l-18 -135h-527z" />
<glyph unicode="&#xae;" horiz-adv-x="1638" d="M152 721q47 326 303 546t573.5 220t511.5 -219q158 -178 158 -422q0 -57 -8 -117q-31 -215 -160 -391t-319.5 -275.5t-397.5 -99.5q-315 0 -511 219q-159 178 -159 423q1 56 9 116zM274 721q-8 -53 -7 -103q0 -206 130 -357q162 -187 432.5 -187t484.5 188.5t253 466.5 q8 53 7 103q0 207 -130 358q-162 186 -432.5 186t-484.5 -188t-253 -467zM573 279l125 882h324q160 0 226 -61q52 -48 52 -139q0 -25 -4 -54q-31 -215 -266 -239l199 -389h-133l-189 378h-157l-54 -378h-123zM766 768h152q57 0 90.5 3t73.5 16.5t62.5 45t31.5 80.5 q2 14 1 26q0 27 -9 47q-13 30 -42.5 43t-59.5 17.5t-71 4.5h-190z" />
<glyph unicode="&#xaf;" horiz-adv-x="491" d="M141 1229l17 110h553l-17 -110h-553z" />
<glyph unicode="&#xb0;" horiz-adv-x="819" d="M268 1169q18 131 116.5 218.5t231.5 87.5q131 0 206 -86q60 -69 60 -169q0 -24 -3 -51q-18 -131 -116.5 -218t-232.5 -87q-131 0 -205 86q-60 69 -60 169q-1 24 3 50zM367 1169q-2 -16 -3 -31q0 -66 43 -115q52 -60 138 -60t154.5 60t80.5 146q2 16 3 32q0 66 -43 115 q-52 60 -138 60t-154.5 -60.5t-80.5 -146.5z" />
<glyph unicode="&#xb1;" horiz-adv-x="1363" d="M174 98l16 123h1045l-16 -123h-1045zM260 711l16 123h461l45 319h123l-45 -319h461l-16 -123h-461l-43 -310h-123l43 310h-461z" />
<glyph unicode="&#xb2;" horiz-adv-x="739" d="M154 592l16 117l397 335q43 37 65.5 58.5t49.5 61.5t31 77q1 8 1 15q0 40 -37 71q-44 37 -102 37q-66 0 -120 -33t-76 -82l-113 19q33 98 120 152.5t198 54.5q121 0 194 -60q62 -50 62 -132q0 -16 -2 -34q-8 -61 -49 -121.5t-77 -94.5t-108 -91l-301 -240h465l-14 -110 h-600z" />
<glyph unicode="&#xb3;" horiz-adv-x="739" d="M176 756l115 61q16 -63 58 -95t124 -32q61 0 121.5 45t69.5 96q1 10 1 20q0 50 -35 90q-42 48 -165 48h-59l14 111h49q88 0 152.5 35.5t72.5 101.5q1 10 2 19q0 42 -30 72q-37 36 -101 36q-59 0 -101 -20.5t-89 -73.5l-86 67q113 137 289 138q115 0 185 -61 q59 -50 59 -131q0 -16 -3 -34q-10 -70 -65.5 -125t-130.5 -77v-5q88 -14 131 -72q35 -47 34 -110q0 -15 -2 -31q-16 -117 -111 -183t-224 -66q-226 0 -275 176z" />
<glyph unicode="&#xb4;" horiz-adv-x="491" d="M283 1155l247 295h187l-314 -295h-120z" />
<glyph unicode="&#xb5;" d="M82 -467l201 1425h135l-76 -530q-25 -180 22.5 -255t192.5 -75q127 0 222 98.5t120 270.5l70 491h135l-107 -747q-4 -31 -7 -66.5t-6 -77.5t-5 -67h-145l22 156h-4q-57 -74 -156.5 -127.5t-191.5 -53.5q-139 0 -217 60l-70 -502h-135z" />
<glyph unicode="&#xb6;" horiz-adv-x="1228" d="M244 1028q27 199 168 310.5t358 111.5h485l-241 -1708h-135l225 1597h-254l-225 -1597h-136l127 905q-186 0 -290 110q-86 90 -86 215q0 27 4 56z" />
<glyph unicode="&#xb7;" horiz-adv-x="569" d="M264 643q6 45 43 78t84 33t74 -33q22 -27 22 -61q0 -8 -2 -17q-6 -45 -41.5 -78t-83 -33t-74.5 33q-23 27 -23 62q0 8 1 16z" />
<glyph unicode="&#xb8;" horiz-adv-x="491" d="M-27 -395l43 73q66 -37 146 -36q51 0 93 22.5t48 69.5q2 16 -3 32.5t-26.5 33t-60.5 16.5q-43 0 -96 -23l-33 35l152 172h83l-108 -123l2 -2q43 14 76 14q66 0 106 -42q33 -34 33 -84q0 -13 -2 -27q-12 -88 -89 -134t-171 -46q-107 0 -193 49z" />
<glyph unicode="&#xb9;" horiz-adv-x="739" d="M291 1280l264 182h111l-121 -870h-123l104 747l-186 -137z" />
<glyph unicode="&#xba;" horiz-adv-x="788" d="M227 1169q18 133 124 219.5t249 86.5q145 0 226 -86q66 -70 66 -172q0 -23 -3 -48q-18 -129 -122.5 -215t-250.5 -86q-143 0 -225 86q-67 70 -67 169q0 22 3 46zM350 1169q-2 -14 -2 -27q0 -66 42 -116q50 -59 138 -59q90 0 159 59t79 143q2 17 2 33q0 65 -41 114 q-51 60 -141 60q-88 0 -156 -60.5t-80 -146.5z" />
<glyph unicode="&#xbb;" horiz-adv-x="987" d="M143 131l287 361l-186 360l106 68l228 -428l-349 -429zM516 131l287 361l-187 360l107 68l227 -428l-348 -429z" />
<glyph unicode="&#xbc;" horiz-adv-x="1708" d="M311 1280l264 182h111l-121 -870h-123l105 747l-187 -137zM313 0l1137 1516l96 -64l-1134 -1518zM965 193l18 126l444 551h150l-80 -567h123l-16 -110h-123l-27 -193h-123l27 193h-393zM1092 303h282l62 445h-4z" />
<glyph unicode="&#xbd;" horiz-adv-x="1708" d="M260 1280l264 182h111l-121 -870h-123l105 747l-187 -137zM262 0l1137 1516l96 -64l-1135 -1518zM1028 0l16 117l398 336q135 113 147 196q1 6 1 12q0 42 -39 74q-44 37 -101 37q-66 0 -120 -32.5t-77 -82.5l-112 19q35 98 122 152.5t197 54.5q121 0 194 -60 q61 -50 60 -132q0 -16 -2 -34q-8 -61 -49 -121.5t-77 -94t-107 -91.5l-299 -239h465l-17 -111h-600z" />
<glyph unicode="&#xbe;" horiz-adv-x="1708" d="M197 756l112 61q31 -127 183 -127q61 0 121.5 45t68.5 96q1 10 1 20q0 50 -35 90q-42 48 -165 48h-59l14 111h49q90 0 154 37t72 108q1 9 1 18q0 38 -30 66q-37 35 -100 35q-59 0 -101.5 -20.5t-89.5 -73.5l-86 67q113 137 289 138q115 0 185 -61q59 -50 59 -131 q0 -16 -2 -34q-10 -70 -65.5 -125t-131.5 -77v-5q88 -14 131 -72q35 -47 35 -110q0 -15 -2 -31q-16 -117 -111.5 -183t-224.5 -66q-225 0 -272 176zM395 0l1137 1516l96 -64l-1134 -1518zM1006 193l18 126l444 551h150l-80 -567h123l-16 -110h-123l-27 -193h-123l27 193 h-393zM1133 303h282l62 445h-4z" />
<glyph unicode="&#xbf;" horiz-adv-x="987" d="M72 -133q12 82 45 146.5t76 102.5l91 79l90 74q42 34 73.5 90.5t41.5 125.5l15 105h147l-22 -170q-10 -61 -53.5 -117.5t-97.5 -101.5l-109 -90q-55 -45 -97.5 -104.5t-50.5 -127.5q-3 -21 -3 -40q0 -77 46 -130q57 -66 164 -65q102 0 180 61.5t111 161.5l151 -19 q-45 -158 -172 -249t-288 -91q-170 0 -267 96q-77 76 -76 198q0 31 5 65zM498 885q6 45 41.5 77.5t83 32.5t74.5 -32q23 -27 23 -62q0 -8 -1 -16q-6 -45 -43 -78t-84 -33t-74 33q-22 27 -21 61q0 9 1 17z" />
<glyph unicode="&#xc0;" horiz-adv-x="1404" d="M0 0l836 1450h143l426 -1450h-172l-107 381h-741l-213 -381h-172zM459 516h628l-204 762zM690 1808h187l163 -295h-120z" />
<glyph unicode="&#xc1;" horiz-adv-x="1404" d="M0 0l836 1450h143l426 -1450h-172l-107 381h-741l-213 -381h-172zM459 516h628l-204 762zM791 1513l245 295h187l-312 -295h-120z" />
<glyph unicode="&#xc2;" horiz-adv-x="1404" d="M0 0l836 1450h143l426 -1450h-172l-107 381h-741l-213 -381h-172zM459 516h628l-204 762zM610 1513l264 295h164l183 -295h-136l-139 222l-201 -222h-135z" />
<glyph unicode="&#xc3;" horiz-adv-x="1404" d="M0 0l836 1450h143l426 -1450h-172l-107 381h-741l-213 -381h-172zM459 516h628l-204 762zM588 1538q66 213 217 213q57 0 143 -47q94 -47 131 -47q74 0 115 102h88q-70 -213 -219 -213q-45 0 -143 47q-82 47 -129 47q-78 0 -115 -102h-88z" />
<glyph unicode="&#xc4;" horiz-adv-x="1404" d="M0 0l836 1450h143l426 -1450h-172l-107 381h-741l-213 -381h-172zM459 516h628l-204 762zM639 1683q4 41 39 73t80 32t69 -32q21 -27 21 -61v-12q-6 -41 -41 -72.5t-80 -31.5t-70 32q-20 25 -19 56q0 8 1 16zM1032 1683q4 41 39 73t80 32t70 -32q21 -27 21 -61 q0 -6 -1 -12q-6 -41 -41 -72.5t-80 -31.5t-69 32q-20 25 -20 56q0 8 1 16z" />
<glyph unicode="&#xc5;" horiz-adv-x="1404" d="M0 0l836 1450h143l426 -1450h-172l-107 381h-741l-213 -381h-172zM459 516h628l-204 762zM743 1690q12 82 78 138t146 56q82 0 132 -56q40 -45 40 -107q0 -15 -2 -31q-12 -82 -78 -138.5t-146 -56.5q-82 0 -132 56q-40 45 -40 107q0 16 2 32zM817 1690q-2 -11 -2 -21 q0 -38 26 -65q32 -35 83 -35t91 34.5t48 86.5q2 11 2 20q0 38 -26 66q-32 35 -83 34.5t-91 -35t-48 -85.5z" />
<glyph unicode="&#xc6;" horiz-adv-x="1933" d="M0 0l1149 1450h852l-21 -135h-602l-69 -494h565l-19 -135h-565l-78 -551h627l-18 -135h-774l57 406h-610l-320 -406h-174zM598 541h524l109 774h-23z" />
<glyph unicode="&#xc7;" horiz-adv-x="1441" d="M201 725q45 330 290.5 546t571.5 216q143 0 269 -57.5t200 -172.5l-141 -96q-35 74 -135.5 132.5t-211.5 58.5q-270 0 -458.5 -183.5t-225.5 -443.5q-8 -55 -7 -107q0 -192 108 -336q137 -183 407 -184q274 0 447 217l108 -86q-92 -117 -246.5 -191.5t-328.5 -74.5 q-29 0 -41 4l-80 -90l2 -2q43 14 76 14q66 0 106 -42q33 -34 33 -84q0 -13 -2 -27q-12 -88 -89 -134t-171 -46q-106 0 -193 49l43 73q66 -37 146 -36q51 0 93 22.5t48 69.5q2 16 -3 32.5t-26.5 33t-60.5 16.5q-43 0 -96 -23l-33 35l127 145q-274 41 -422 249 q-114 161 -114 374q0 62 10 129z" />
<glyph unicode="&#xc8;" horiz-adv-x="1214" d="M197 0l204 1450h899l-20 -135h-752l-69 -494h702l-18 -135h-703l-78 -551h777l-19 -135h-923zM596 1808h186l164 -295h-121z" />
<glyph unicode="&#xc9;" horiz-adv-x="1214" d="M197 0l204 1450h899l-20 -135h-752l-69 -494h702l-18 -135h-703l-78 -551h777l-19 -135h-923zM696 1513l246 295h186l-311 -295h-121z" />
<glyph unicode="&#xca;" horiz-adv-x="1214" d="M197 0l204 1450h899l-20 -135h-752l-69 -494h702l-18 -135h-703l-78 -551h777l-19 -135h-923zM516 1513l264 295h164l182 -295h-135l-139 222l-201 -222h-135z" />
<glyph unicode="&#xcb;" horiz-adv-x="1214" d="M197 0l204 1450h899l-20 -135h-752l-69 -494h702l-18 -135h-703l-78 -551h777l-19 -135h-923zM545 1683q4 41 38.5 73t80 32t69.5 -32q21 -27 21 -61v-12q-6 -41 -41 -72.5t-80 -31.5t-70 32q-20 25 -19 56q0 8 1 16zM938 1683q4 41 39 73t80 32t69 -32q21 -27 21 -61 v-12q-6 -41 -41 -72.5t-80 -31.5t-70 32q-20 25 -19 56q0 8 1 16z" />
<glyph unicode="&#xcc;" horiz-adv-x="540" d="M197 0l204 1450h148l-205 -1450h-147zM258 1808h186l164 -295h-121z" />
<glyph unicode="&#xcd;" horiz-adv-x="540" d="M197 0l204 1450h148l-205 -1450h-147zM358 1513l246 295h187l-312 -295h-121z" />
<glyph unicode="&#xce;" horiz-adv-x="540" d="M178 1513l264 295h164l182 -295h-135l-139 222l-201 -222h-135zM197 0l204 1450h148l-205 -1450h-147z" />
<glyph unicode="&#xcf;" horiz-adv-x="540" d="M197 0l204 1450h148l-205 -1450h-147zM207 1683q4 41 39 73t80 32t69 -32q21 -27 21 -61v-12q-6 -41 -41 -72.5t-80 -31.5t-70 32q-20 25 -19 56q0 8 1 16zM600 1683q4 41 39 73t80 32t69 -32q21 -27 22 -61q0 -6 -1 -12q-6 -41 -41 -72.5t-80 -31.5t-70 32 q-20 25 -19 56q0 8 1 16z" />
<glyph unicode="&#xd0;" horiz-adv-x="1517" d="M127 711l14 110h150l90 629h481q111 0 214.5 -28.5t193.5 -88t153.5 -143.5t90.5 -205q16 -69 16 -145q0 -56 -8 -115q-33 -229 -173.5 -399t-321.5 -248t-370 -78h-481l100 711h-149zM342 135h287q313 0 505.5 173t227.5 417q6 44 6 86q0 69 -16 133 q-27 104 -92.5 188.5t-185.5 133.5t-279 49h-287l-70 -494h529l-15 -110h-528z" />
<glyph unicode="&#xd1;" horiz-adv-x="1593" d="M197 0l204 1450h185l690 -1229h4l174 1229h148l-205 -1450h-185l-690 1241h-4l-174 -1241h-147zM682 1538q66 213 217 213q57 0 143 -47q94 -47 132 -47q74 0 114 102h88q-70 -213 -219 -213q-45 0 -143 47q-82 47 -129 47q-78 0 -115 -102h-88z" />
<glyph unicode="&#xd2;" horiz-adv-x="1708" d="M201 725q45 330 290.5 546t571.5 216t510 -216q148 -174 148 -421q0 -60 -9 -125q-45 -330 -291.5 -546t-572.5 -216t-509 216q-147 173 -147 420q0 61 9 126zM360 725q-8 -55 -7 -107q0 -192 108 -336q137 -183 407.5 -183.5t459 183t224.5 443.5q8 55 8 107 q0 192 -108 336q-137 183 -407.5 183.5t-459 -183t-225.5 -443.5zM842 1808h186l164 -295h-121z" />
<glyph unicode="&#xd3;" horiz-adv-x="1708" d="M201 725q45 330 290.5 546t571.5 216t510 -216q148 -174 148 -421q0 -60 -9 -125q-45 -330 -291.5 -546t-572.5 -216t-509 216q-147 173 -147 420q0 61 9 126zM360 725q-8 -55 -7 -107q0 -192 108 -336q137 -183 407.5 -183.5t459 183t224.5 443.5q8 55 8 107 q0 192 -108 336q-137 183 -407.5 183.5t-459 -183t-225.5 -443.5zM942 1513l246 295h186l-311 -295h-121z" />
<glyph unicode="&#xd4;" horiz-adv-x="1708" d="M201 725q45 330 290.5 546t571.5 216t510 -216q148 -174 148 -421q0 -60 -9 -125q-45 -330 -291.5 -546t-572.5 -216t-509 216q-147 173 -147 420q0 61 9 126zM360 725q-8 -55 -7 -107q0 -192 108 -336q137 -183 407.5 -183.5t459 183t224.5 443.5q8 55 8 107 q0 192 -108 336q-137 183 -407.5 183.5t-459 -183t-225.5 -443.5zM762 1513l264 295h164l182 -295h-135l-139 222l-201 -222h-135z" />
<glyph unicode="&#xd5;" horiz-adv-x="1708" d="M201 725q45 330 290.5 546t571.5 216t510 -216q148 -174 148 -421q0 -60 -9 -125q-45 -330 -291.5 -546t-572.5 -216t-509 216q-147 173 -147 420q0 61 9 126zM360 725q-8 -55 -7 -107q0 -192 108 -336q137 -183 407.5 -183.5t459 183t224.5 443.5q8 55 8 107 q0 192 -108 336q-137 183 -407.5 183.5t-459 -183t-225.5 -443.5zM739 1538q66 213 217 213q57 0 144 -47q94 -47 131 -47q74 0 115 102h88q-70 -213 -220 -213q-45 0 -143 47q-82 47 -129 47q-78 0 -115 -102h-88z" />
<glyph unicode="&#xd6;" horiz-adv-x="1708" d="M201 725q45 330 290.5 546t571.5 216t510 -216q148 -174 148 -421q0 -60 -9 -125q-45 -330 -291.5 -546t-572.5 -216t-509 216q-147 173 -147 420q0 61 9 126zM360 725q-8 -55 -7 -107q0 -192 108 -336q137 -183 407.5 -183.5t459 183t224.5 443.5q8 55 8 107 q0 192 -108 336q-137 183 -407.5 183.5t-459 -183t-225.5 -443.5zM791 1683q4 41 38.5 73t79.5 32t70 -32q21 -27 21 -61q0 -6 -1 -12q-6 -41 -40.5 -72.5t-79.5 -31.5t-70 32q-20 25 -20 56zM1184 1683q4 41 38.5 73t80 32t69.5 -32q21 -27 21 -61v-12q-6 -41 -41 -72.5 t-80 -31.5t-70 32q-20 25 -19 56q0 8 1 16z" />
<glyph unicode="&#xd7;" horiz-adv-x="1363" d="M311 295l373 326l-281 327l99 86l280 -325l369 325l76 -86l-371 -327l279 -326l-101 -88l-276 325l-373 -325z" />
<glyph unicode="&#xd8;" horiz-adv-x="1708" d="M143 33l181 168q-132 166 -133 396q0 62 10 128q45 330 290.5 546t571.5 216q279 0 461 -166l178 166l65 -70l-178 -168q132 -166 132 -399q0 -60 -9 -125q-45 -330 -291.5 -546t-572.5 -216q-281 0 -459 166l-180 -166zM360 725q-8 -56 -8 -109q0 -173 88 -305l969 903 q-137 137 -365 138q-270 0 -458.5 -183.5t-225.5 -443.5zM502 236q137 -137 366 -138q270 0 459 183.5t225 443.5q7 53 8 103q0 175 -90 311z" />
<glyph unicode="&#xd9;" horiz-adv-x="1404" d="M240 388q2 79 8 153l129 909h147l-127 -893q-8 -58 -8 -108q0 -54 9 -100q17 -89 53 -135t89.5 -73.5t93.5 -35t83 -7.5t85 7.5t103.5 35t109.5 73.5t90 135t58 208l127 893h148l-129 -909q-10 -80 -34 -154t-72 -153.5t-112.5 -137t-167 -95.5t-227.5 -38t-217 37 t-138 97.5t-75 135.5q-27 71 -27 145q1 5 1 10zM690 1808h187l163 -295h-120z" />
<glyph unicode="&#xda;" horiz-adv-x="1404" d="M240 388q2 79 8 153l129 909h147l-127 -893q-8 -58 -8 -108q0 -54 9 -100q17 -89 53 -135t89.5 -73.5t93.5 -35t83 -7.5t85 7.5t103.5 35t109.5 73.5t90 135t58 208l127 893h148l-129 -909q-10 -80 -34 -154t-72 -153.5t-112.5 -137t-167 -95.5t-227.5 -38t-217 37 t-138 97.5t-75 135.5q-27 71 -27 145q1 5 1 10zM791 1513l245 295h187l-312 -295h-120z" />
<glyph unicode="&#xdb;" horiz-adv-x="1404" d="M240 388q2 79 8 153l129 909h147l-127 -893q-8 -58 -8 -108q0 -54 9 -100q17 -89 53 -135t89.5 -73.5t93.5 -35t83 -7.5t85 7.5t103.5 35t109.5 73.5t90 135t58 208l127 893h148l-129 -909q-10 -80 -34 -154t-72 -153.5t-112.5 -137t-167 -95.5t-227.5 -38t-217 37 t-138 97.5t-75 135.5q-27 71 -27 145q1 5 1 10zM610 1513l264 295h164l183 -295h-136l-139 222l-201 -222h-135z" />
<glyph unicode="&#xdc;" horiz-adv-x="1404" d="M240 388q2 79 8 153l129 909h147l-127 -893q-8 -58 -8 -108q0 -54 9 -100q17 -89 53 -135t89.5 -73.5t93.5 -35t83 -7.5t85 7.5t103.5 35t109.5 73.5t90 135t58 208l127 893h148l-129 -909q-10 -80 -34 -154t-72 -153.5t-112.5 -137t-167 -95.5t-227.5 -38t-217 37 t-138 97.5t-75 135.5q-27 71 -27 145q1 5 1 10zM639 1683q4 41 39 73t80 32t69 -32q21 -27 21 -61v-12q-6 -41 -41 -72.5t-80 -31.5t-70 32q-20 25 -19 56q0 8 1 16zM1032 1683q4 41 39 73t80 32t70 -32q21 -27 21 -61q0 -6 -1 -12q-6 -41 -41 -72.5t-80 -31.5t-69 32 q-20 25 -20 56q0 8 1 16z" />
<glyph unicode="&#xdd;" horiz-adv-x="1175" d="M176 1450h184l336 -684l529 684h184l-659 -825l-88 -625h-148l88 625zM676 1513l246 295h186l-311 -295h-121z" />
<glyph unicode="&#xde;" horiz-adv-x="1175" d="M197 0l204 1450h148l-45 -320h327q188 0 292 -99q82 -79 83 -214q0 -35 -6 -74q-27 -190 -158 -289.5t-321 -99.5h-328l-49 -354h-147zM414 489h237q72 0 124 7.5t113.5 31t100.5 77.5t51 138q4 26 4 50q0 37 -10 66q-16 48 -46 73.5t-79 41t-91 18.5t-97 3h-238z" />
<glyph unicode="&#xdf;" horiz-adv-x="1214" d="M172 0l156 1114q29 203 148.5 331t348.5 128q170 0 268 -97q78 -78 77 -201q0 -31 -5 -65q-33 -240 -282 -325l-2 -4q170 -14 242 -135q54 -90 55 -207q0 -40 -7 -82q-31 -217 -183 -349.5t-370 -132.5q-66 0 -116 17l16 117q41 -10 98 -11q164 0 274.5 96.5t133.5 264.5 q6 40 6 75q0 126 -75 195q-95 88 -291 88l18 123q135 0 225 60.5t109 191.5q3 25 3 48q0 86 -48 140q-61 70 -170 70q-150 0 -234 -98.5t-102 -225.5l-158 -1126h-135z" />
<glyph unicode="&#xe0;" horiz-adv-x="1062" d="M135 256q12 88 62.5 153.5t114 98.5t154.5 52.5t157.5 23.5t152.5 4h68l4 24q4 29 4 56q0 193 -215 192q-168 0 -309 -112l-68 96q156 139 424 139q152 0 239 -87q69 -69 69 -188q0 -31 -5 -65l-59 -428q-14 -102 -15 -215h-131q-1 16 -1 32q0 58 12 124h-5 q-137 -180 -364 -181q-137 0 -222 74q-70 61 -70 161q0 22 3 46zM285 274q-2 -15 -2 -28q0 -67 50 -104q60 -44 152 -44q141 0 227.5 87t106.5 223l10 69h-69q-446 0 -475 -203zM471 1450h186l162 -295h-121z" />
<glyph unicode="&#xe1;" horiz-adv-x="1062" d="M135 256q12 88 62.5 153.5t114 98.5t154.5 52.5t157.5 23.5t152.5 4h68l4 24q4 29 4 56q0 193 -215 192q-168 0 -309 -112l-68 96q156 139 424 139q152 0 239 -87q69 -69 69 -188q0 -31 -5 -65l-59 -428q-14 -102 -15 -215h-131q-1 16 -1 32q0 58 12 124h-5 q-137 -180 -364 -181q-137 0 -222 74q-70 61 -70 161q0 22 3 46zM285 274q-2 -15 -2 -28q0 -67 50 -104q60 -44 152 -44q141 0 227.5 87t106.5 223l10 69h-69q-446 0 -475 -203zM569 1155l248 295h187l-314 -295h-121z" />
<glyph unicode="&#xe2;" horiz-adv-x="1062" d="M135 256q12 88 62.5 153.5t114 98.5t154.5 52.5t157.5 23.5t152.5 4h68l4 24q4 29 4 56q0 193 -215 192q-168 0 -309 -112l-68 96q156 139 424 139q152 0 239 -87q69 -69 69 -188q0 -31 -5 -65l-59 -428q-14 -102 -15 -215h-131q-1 16 -1 32q0 58 12 124h-5 q-137 -180 -364 -181q-137 0 -222 74q-70 61 -70 161q0 22 3 46zM285 274q-2 -15 -2 -28q0 -67 50 -104q60 -44 152 -44q141 0 227.5 87t106.5 223l10 69h-69q-446 0 -475 -203zM389 1155l266 295h164l180 -295h-135l-139 221l-201 -221h-135z" />
<glyph unicode="&#xe3;" horiz-adv-x="1062" d="M135 256q12 88 62.5 153.5t114 98.5t154.5 52.5t157.5 23.5t152.5 4h68l4 24q4 29 4 56q0 193 -215 192q-168 0 -309 -112l-68 96q156 139 424 139q152 0 239 -87q69 -69 69 -188q0 -31 -5 -65l-59 -428q-14 -102 -15 -215h-131q-1 16 -1 32q0 58 12 124h-5 q-137 -180 -364 -181q-137 0 -222 74q-70 61 -70 161q0 22 3 46zM285 274q-2 -15 -2 -28q0 -67 50 -104q60 -44 152 -44q141 0 227.5 87t106.5 223l10 69h-69q-446 0 -475 -203zM367 1180q66 213 219 213q55 0 141 -47q98 -47 131 -48q78 0 115 103h88q-66 -213 -217 -213 q-49 0 -144 47q-86 47 -131 47q-78 0 -114 -102h-88z" />
<glyph unicode="&#xe4;" horiz-adv-x="1062" d="M135 256q12 88 62.5 153.5t114 98.5t154.5 52.5t157.5 23.5t152.5 4h68l4 24q4 29 4 56q0 193 -215 192q-168 0 -309 -112l-68 96q156 139 424 139q152 0 239 -87q69 -69 69 -188q0 -31 -5 -65l-59 -428q-14 -102 -15 -215h-131q-1 16 -1 32q0 58 12 124h-5 q-137 -180 -364 -181q-137 0 -222 74q-70 61 -70 161q0 22 3 46zM285 274q-2 -15 -2 -28q0 -67 50 -104q60 -44 152 -44q141 0 227.5 87t106.5 223l10 69h-69q-446 0 -475 -203zM418 1325q6 41 40 73t79 32t70 -32q21 -26 21 -57q0 -8 -1 -16q-6 -41 -40 -72.5t-79 -31.5 t-71 31q-21 26 -20 58q0 7 1 15zM811 1325q6 41 40 73t79 32t70 -32q21 -26 21 -57q0 -8 -1 -16q-6 -41 -40 -72.5t-79 -31.5t-71 31q-21 26 -20 58q0 7 1 15z" />
<glyph unicode="&#xe5;" horiz-adv-x="1062" d="M135 256q12 88 62.5 153.5t114 98.5t154.5 52.5t157.5 23.5t152.5 4h68l4 24q4 29 4 56q0 193 -215 192q-168 0 -309 -112l-68 96q156 139 424 139q152 0 239 -87q69 -69 69 -188q0 -31 -5 -65l-59 -428q-14 -102 -15 -215h-131q-1 16 -1 32q0 58 12 124h-5 q-137 -180 -364 -181q-137 0 -222 74q-70 61 -70 161q0 22 3 46zM285 274q-2 -15 -2 -28q0 -67 50 -104q60 -44 152 -44q141 0 227.5 87t106.5 223l10 69h-69q-446 0 -475 -203zM522 1331q12 82 79 138.5t146.5 56.5t130.5 -57q40 -45 40 -107q0 -15 -3 -31 q-10 -82 -75.5 -138t-147.5 -56q-80 0 -130 56q-42 47 -42 111q0 13 2 27zM596 1331q-1 -9 -1 -16q0 -40 26 -70q31 -35 82 -35t92 35t47 86q2 11 1 21q0 38 -24 65q-31 35 -82 35t-92 -35t-49 -86z" />
<glyph unicode="&#xe6;" horiz-adv-x="1744" d="M135 256q41 297 508 297h227l9 59q2 20 2 40q0 47 -15 84q-20 52 -58 77t-73 36t-67 11q-170 0 -308 -115l-69 99q170 139 399 139q109 0 190 -52t103 -132q57 84 159.5 134t207.5 50q205 -2 301 -135q74 -103 74 -251q0 -44 -7 -93l-10 -62h-719l-2 -18q-4 -30 -4 -59 q0 -98 49 -171q63 -95 191 -96q113 0 184.5 41t134.5 115l96 -84q-180 -195 -430 -195q-115 0 -204 56.5t-121 167.5q-88 -119 -196.5 -171.5t-262.5 -52.5q-137 0 -222 74q-70 61 -70 161q0 22 3 46zM285 274q-2 -15 -2 -28q0 -67 50 -104q60 -44 152 -44q145 0 245.5 91.5 t121.5 234.5l2 18h-281q-104 0 -190 -40t-98 -128zM1006 553h583q4 29 4 55q0 98 -54 166q-69 86 -202 86q-123 0 -218 -88t-113 -219z" />
<glyph unicode="&#xe7;" horiz-adv-x="987" d="M166 479q31 221 189 364q156 140 382 140h6q213 -4 328 -166l-123 -84q-27 55 -86 91t-135 36h-6q-160 0 -270 -105q-113 -108 -138 -276q-6 -38 -5 -73q0 -119 64 -202q81 -106 242 -106h7q76 0 144.5 36t111.5 91l100 -84q-162 -162 -375 -166q-12 0 -14 2l-88 -100 l2 -2q43 14 76 14q66 0 106 -42q33 -34 33 -84q0 -13 -2 -27q-12 -88 -89 -134t-171 -46q-106 0 -193 49l43 73q63 -37 146 -36q51 0 93 22.5t48 69.5q2 16 -3 32.5t-26.5 33t-60.5 16.5q-43 0 -96 -23l-33 35l137 156q-188 27 -281 162q-70 104 -70 243q0 43 7 90z" />
<glyph unicode="&#xe8;" d="M166 479q31 215 189.5 359.5t363.5 144.5q211 -2 316 -139q83 -108 83 -257q0 -40 -6 -83l-10 -62h-799q-1 -13 -1 -25q0 -129 79 -219q86 -99 227 -100q100 0 188.5 48.5t141.5 117.5l92 -86q-188 -203 -440 -203q-213 0 -334 144q-96 114 -96 275q0 41 6 85zM324 553 h647q4 28 4 55q1 102 -57 168q-72 84 -216 84q-131 0 -246.5 -94t-131.5 -213zM508 1450h186l162 -295h-121z" />
<glyph unicode="&#xe9;" d="M166 479q31 215 189.5 359.5t363.5 144.5q211 -2 316 -139q83 -108 83 -257q0 -40 -6 -83l-10 -62h-799q-1 -13 -1 -25q0 -129 79 -219q86 -99 227 -100q100 0 188.5 48.5t141.5 117.5l92 -86q-188 -203 -440 -203q-213 0 -334 144q-96 114 -96 275q0 41 6 85zM324 553 h647q4 28 4 55q1 102 -57 168q-72 84 -216 84q-131 0 -246.5 -94t-131.5 -213zM606 1155l248 295h186l-313 -295h-121z" />
<glyph unicode="&#xea;" d="M166 479q31 215 189.5 359.5t363.5 144.5q211 -2 316 -139q83 -108 83 -257q0 -40 -6 -83l-10 -62h-799q-1 -13 -1 -25q0 -129 79 -219q86 -99 227 -100q100 0 188.5 48.5t141.5 117.5l92 -86q-188 -203 -440 -203q-213 0 -334 144q-96 114 -96 275q0 41 6 85zM324 553 h647q4 28 4 55q1 102 -57 168q-72 84 -216 84q-131 0 -246.5 -94t-131.5 -213zM426 1155l266 295h164l180 -295h-135l-139 221l-201 -221h-135z" />
<glyph unicode="&#xeb;" d="M166 479q31 215 189.5 359.5t363.5 144.5q211 -2 316 -139q83 -108 83 -257q0 -40 -6 -83l-10 -62h-799q-1 -13 -1 -25q0 -129 79 -219q86 -99 227 -100q100 0 188.5 48.5t141.5 117.5l92 -86q-188 -203 -440 -203q-213 0 -334 144q-96 114 -96 275q0 41 6 85zM324 553 h647q4 28 4 55q1 102 -57 168q-72 84 -216 84q-131 0 -246.5 -94t-131.5 -213zM455 1325q6 41 39.5 73t78.5 32t71 -32q21 -26 21 -57q0 -8 -1 -16q-6 -41 -40 -72.5t-79 -31.5t-71 31q-21 26 -21 58q1 7 2 15zM848 1325q6 41 40 73t79 32t70 -32q21 -26 21 -57q0 -8 -1 -16 q-6 -41 -40 -72.5t-79 -31.5t-71 31q-21 26 -20 58q0 7 1 15z" />
<glyph unicode="&#xec;" horiz-adv-x="491" d="M178 0l135 958h136l-136 -958h-135zM184 1450h187l161 -295h-120z" />
<glyph unicode="&#xed;" horiz-adv-x="491" d="M178 0l135 958h136l-136 -958h-135zM283 1155l247 295h187l-314 -295h-120z" />
<glyph unicode="&#xee;" horiz-adv-x="491" d="M102 1155l267 295h163l181 -295h-135l-140 221l-200 -221h-136zM178 0l135 958h136l-136 -958h-135z" />
<glyph unicode="&#xef;" horiz-adv-x="491" d="M131 1325q6 41 40 73t79 32t71 -32q21 -26 20 -57q0 -8 -1 -16q-6 -41 -40 -72.5t-79 -31.5t-70 31q-21 26 -21 58q0 7 1 15zM178 0l135 958h136l-136 -958h-135zM524 1325q6 41 40 73t79 32t71 -32q21 -26 20 -57q0 -8 -1 -16q-6 -41 -40 -72.5t-79 -31.5t-70 31 q-21 26 -21 58q0 7 1 15z" />
<glyph unicode="&#xf0;" horiz-adv-x="1214" d="M166 479q31 217 193.5 360.5t383.5 143.5q166 0 291 -119l6 4q-98 248 -268 418l-242 -117l-63 74l238 115q-88 96 -173 162l134 75q113 -102 176 -170l223 109l72 -72l-226 -110q170 -197 242 -398q48 -135 48 -285q0 -73 -11 -149q-14 -100 -53 -190t-105.5 -173 t-177.5 -132.5t-252 -49.5q-221 0 -344 144q-98 115 -98 276q0 41 6 84zM313 479q-5 -35 -4 -67q0 -120 65 -205q83 -109 246.5 -109t277.5 107.5t138 273.5q5 35 5 67q0 120 -66 206q-84 109 -248 108q-162 0 -276.5 -108.5t-137.5 -272.5z" />
<glyph unicode="&#xf1;" d="M147 0l105 748q4 27 20 210h140q-2 -68 -17 -153h4q55 78 152.5 128t193.5 50q180 0 257 -97q58 -74 59 -195q0 -39 -6 -83l-86 -608h-135l73 530q9 58 9 107q0 90 -30 142q-46 81 -192 81q-16 0 -41.5 -4t-76 -25.5t-92.5 -57.5t-79.5 -109.5t-52.5 -171.5l-69 -492 h-136zM403 1180q66 213 220 213q55 0 141 -47q98 -47 131 -48q78 0 115 103h88q-66 -213 -217 -213q-49 0 -144 47q-86 47 -131 47q-78 0 -114 -102h-89z" />
<glyph unicode="&#xf2;" horiz-adv-x="1214" d="M166 479q31 217 193.5 360.5t383.5 143.5q223 0 348 -143q99 -115 99 -277q0 -40 -6 -84q-31 -217 -195 -360.5t-387 -143.5q-221 0 -344 144q-98 115 -98 276q0 41 6 84zM313 479q-5 -35 -4 -67q0 -120 65 -205q83 -109 246.5 -109t277.5 107.5t138 273.5q5 35 5 67 q0 120 -66 206q-84 109 -248 108q-162 0 -276.5 -108.5t-137.5 -272.5zM547 1450h186l162 -295h-121z" />
<glyph unicode="&#xf3;" horiz-adv-x="1214" d="M166 479q31 217 193.5 360.5t383.5 143.5q223 0 348 -143q99 -115 99 -277q0 -40 -6 -84q-31 -217 -195 -360.5t-387 -143.5q-221 0 -344 144q-98 115 -98 276q0 41 6 84zM313 479q-5 -35 -4 -67q0 -120 65 -205q83 -109 246.5 -109t277.5 107.5t138 273.5q5 35 5 67 q0 120 -66 206q-84 109 -248 108q-162 0 -276.5 -108.5t-137.5 -272.5zM645 1155l248 295h186l-313 -295h-121z" />
<glyph unicode="&#xf4;" horiz-adv-x="1214" d="M166 479q31 217 193.5 360.5t383.5 143.5q223 0 348 -143q99 -115 99 -277q0 -40 -6 -84q-31 -217 -195 -360.5t-387 -143.5q-221 0 -344 144q-98 115 -98 276q0 41 6 84zM313 479q-5 -35 -4 -67q0 -120 65 -205q83 -109 246.5 -109t277.5 107.5t138 273.5q5 35 5 67 q0 120 -66 206q-84 109 -248 108q-162 0 -276.5 -108.5t-137.5 -272.5zM465 1155l266 295h164l180 -295h-135l-139 221l-201 -221h-135z" />
<glyph unicode="&#xf5;" horiz-adv-x="1214" d="M166 479q31 217 193.5 360.5t383.5 143.5q223 0 348 -143q99 -115 99 -277q0 -40 -6 -84q-31 -217 -195 -360.5t-387 -143.5q-221 0 -344 144q-98 115 -98 276q0 41 6 84zM313 479q-5 -35 -4 -67q0 -120 65 -205q83 -109 246.5 -109t277.5 107.5t138 273.5q5 35 5 67 q0 120 -66 206q-84 109 -248 108q-162 0 -276.5 -108.5t-137.5 -272.5zM442 1180q66 213 219 213q55 0 142 -47q98 -47 131 -48q78 0 115 103h88q-66 -213 -217 -213q-49 0 -144 47q-86 47 -131 47q-78 0 -115 -102h-88z" />
<glyph unicode="&#xf6;" horiz-adv-x="1214" d="M166 479q31 217 193.5 360.5t383.5 143.5q223 0 348 -143q99 -115 99 -277q0 -40 -6 -84q-31 -217 -195 -360.5t-387 -143.5q-221 0 -344 144q-98 115 -98 276q0 41 6 84zM313 479q-5 -35 -4 -67q0 -120 65 -205q83 -109 246.5 -109t277.5 107.5t138 273.5q5 35 5 67 q0 120 -66 206q-84 109 -248 108q-162 0 -276.5 -108.5t-137.5 -272.5zM494 1325q6 41 39.5 72.5t78.5 32t71 -31.5q21 -26 21 -57q0 -8 -2 -16q-6 -41 -39.5 -72.5t-78.5 -31.5t-71 31q-21 26 -21 58q1 7 2 15zM887 1325q6 41 40 72.5t79 32t70 -31.5q21 -26 21 -57 q0 -8 -1 -16q-6 -41 -40 -72.5t-79 -31.5t-71 31q-21 26 -20 58q0 7 1 15z" />
<glyph unicode="&#xf7;" horiz-adv-x="1363" d="M238 559l18 123h1044l-18 -123h-1044zM612 289q6 45 42 77.5t83 32.5t75 -32q23 -27 23 -62q0 -8 -1 -16q-6 -45 -43 -78t-84.5 -33t-73.5 33q-22 27 -22 61q0 9 1 17zM705 952q6 45 42.5 78t84 33t73.5 -33q22 -27 22 -61q0 -8 -1 -17q-6 -45 -42 -77.5t-83 -32.5 t-75 32q-23 27 -23 62z" />
<glyph unicode="&#xf8;" horiz-adv-x="1214" d="M82 6l156 139q-77 108 -78 253q0 39 6 81q31 217 193.5 360.5t383.5 143.5q188 0 312 -106l155 139l56 -64l-154 -139q77 -106 77 -252q0 -39 -5 -82q-31 -217 -195 -360.5t-387 -143.5q-188 0 -305 107l-158 -139zM313 479q-5 -35 -4 -67q0 -96 41 -166l598 534 q-84 80 -221 80q-162 0 -276.5 -108.5t-137.5 -272.5zM401 176q84 -78 220 -78q164 0 277.5 107.5t137.5 273.5q5 32 5 63q0 92 -42 171z" />
<glyph unicode="&#xf9;" d="M197 350l86 608h135l-76 -530q-7 -55 -7 -101q0 -94 31 -148q46 -81 191 -81q16 0 42 4t76 26t92 57.5t80 109.5t52 172l70 491h135l-107 -747l-5 -58l-7 -82l-6 -71h-139q2 68 16 154h-4q-57 -78 -154.5 -128.5t-193.5 -50.5q-314 0 -314 287q1 41 7 88zM508 1450h186 l162 -295h-121z" />
<glyph unicode="&#xfa;" d="M197 350l86 608h135l-76 -530q-7 -55 -7 -101q0 -94 31 -148q46 -81 191 -81q16 0 42 4t76 26t92 57.5t80 109.5t52 172l70 491h135l-107 -747l-5 -58l-7 -82l-6 -71h-139q2 68 16 154h-4q-57 -78 -154.5 -128.5t-193.5 -50.5q-314 0 -314 287q1 41 7 88zM606 1155 l248 295h186l-313 -295h-121z" />
<glyph unicode="&#xfb;" d="M197 350l86 608h135l-76 -530q-7 -55 -7 -101q0 -94 31 -148q46 -81 191 -81q16 0 42 4t76 26t92 57.5t80 109.5t52 172l70 491h135l-107 -747l-5 -58l-7 -82l-6 -71h-139q2 68 16 154h-4q-57 -78 -154.5 -128.5t-193.5 -50.5q-314 0 -314 287q1 41 7 88zM426 1155 l266 295h164l180 -295h-135l-139 221l-201 -221h-135z" />
<glyph unicode="&#xfc;" d="M197 350l86 608h135l-76 -530q-7 -55 -7 -101q0 -94 31 -148q46 -81 191 -81q16 0 42 4t76 26t92 57.5t80 109.5t52 172l70 491h135l-107 -747l-5 -58l-7 -82l-6 -71h-139q2 68 16 154h-4q-57 -78 -154.5 -128.5t-193.5 -50.5q-314 0 -314 287q1 41 7 88zM455 1325 q6 41 39.5 72.5t79 32t70.5 -31.5q21 -26 21 -57q0 -8 -1 -16q-6 -41 -40 -72.5t-79 -31.5t-71 31q-21 26 -21 58q1 7 2 15zM848 1325q6 41 40 72.5t79 32t70 -31.5q21 -26 21 -57q0 -8 -1 -16q-6 -41 -40 -72.5t-79 -31.5t-71 31q-21 26 -20 58q0 7 1 15z" />
<glyph unicode="&#xfd;" horiz-adv-x="987" d="M-12 -477l32 131q39 -23 101 -23q68 0 115 42t94 130l94 185l-256 970h170l188 -792l406 792h164l-650 -1208q-63 -121 -141 -181.5t-194 -60.5q-78 1 -123 15zM530 1155l248 295h187l-314 -295h-121z" />
<glyph unicode="&#xfe;" horiz-adv-x="1251" d="M82 -467l283 2015h135l-107 -768h4q176 203 399.5 203t347.5 -143q99 -115 99 -277q0 -40 -6 -84q-31 -217 -194.5 -360.5t-387.5 -143.5q-104 0 -200.5 47.5t-145.5 137.5h-4l-88 -627h-135zM344 479q-5 -33 -4 -63q0 -122 72 -209q90 -109 262 -109q164 0 277.5 107.5 t138.5 273.5q5 35 4 67q0 120 -66 206q-84 109 -248 108q-166 0 -289.5 -109.5t-146.5 -271.5z" />
<glyph unicode="&#xff;" horiz-adv-x="987" d="M-12 -477l32 131q39 -23 101 -23q68 0 115 42t94 130l94 185l-256 970h170l188 -792l406 792h164l-650 -1208q-63 -121 -141 -181.5t-194 -60.5q-78 1 -123 15zM379 1325q6 41 40 72.5t79 32t70 -31.5q21 -26 21 -57q0 -8 -1 -16q-6 -41 -40 -72.5t-79 -31.5t-71 31 q-21 26 -20 58q0 7 1 15zM772 1325q6 41 40 72.5t79 32t71 -31.5q21 -26 20 -57q0 -8 -1 -16q-6 -41 -40 -72.5t-79 -31.5t-70 31q-21 26 -21 58q0 7 1 15z" />
<glyph unicode="&#x152;" horiz-adv-x="1933" d="M230 531q-3 46 -3 92q0 52 4 104q25 176 113 317.5t214 228.5t271.5 132t294.5 45h895l-20 -135h-602l-70 -494h578l-19 -135h-577l-78 -551h627l-19 -135h-915q-168 0 -300 45t-208 120t-127.5 171t-58.5 195zM384 635q-1 -9 -1 -18q0 -42 12 -88q14 -56 32.5 -111 t63 -106.5t101.5 -90.5t146 -62.5t200 -23.5h145l166 1180h-116q-293 0 -498 -155.5t-246 -438.5q-2 -37 -5 -86z" />
<glyph unicode="&#x153;" horiz-adv-x="1888" d="M166 479q31 217 189.5 360.5t365.5 143.5q125 0 226.5 -53t150.5 -162q170 215 395 215q205 -2 301 -135q74 -103 74 -251q0 -44 -6 -93l-11 -62h-718l-3 -18q-4 -30 -4 -59q0 -98 50 -171q63 -95 190 -96q113 0 184.5 41t135.5 115l96 -84q-180 -195 -430 -195 q-121 0 -211 55.5t-131 162.5q-88 -109 -208 -163.5t-222 -54.5q-217 0 -331 143q-89 112 -90 271q0 43 7 90zM313 479q-5 -36 -5 -68q0 -117 63 -203q80 -110 227 -110q160 0 265.5 109.5t127.5 271.5q5 37 5 72q0 115 -57 200q-75 110 -234 109q-147 0 -258 -108.5 t-134 -272.5zM1149 553h584q4 29 4 55q0 98 -55 166q-69 86 -201 86q-123 0 -218.5 -88t-113.5 -219z" />
<glyph unicode="&#x178;" horiz-adv-x="1175" d="M176 1450h184l336 -684l529 684h184l-659 -825l-88 -625h-148l88 625zM524 1683q4 41 39 73t80 32t70 -32q21 -27 21 -61q0 -6 -1 -12q-6 -41 -41 -72.5t-80 -31.5t-69 32q-20 25 -20 56q0 8 1 16zM918 1683q4 41 38.5 73t79.5 32t70 -32q21 -27 21 -61q0 -6 -1 -12 q-6 -41 -40.5 -72.5t-79.5 -31.5t-70 32q-20 25 -20 56z" />
<glyph unicode="&#x2c6;" horiz-adv-x="491" d="M102 1155l267 295h163l181 -295h-135l-140 221l-200 -221h-136z" />
<glyph unicode="&#x2dc;" horiz-adv-x="491" d="M80 1180q66 213 219 213q55 0 141 -47q98 -47 131 -48q78 0 115 103h88q-66 -213 -217 -213q-49 0 -143 47q-86 47 -131 47q-78 0 -115 -102h-88z" />
<glyph unicode="&#x2013;" horiz-adv-x="1024" d="M59 424l19 135h1024l-19 -135h-1024z" />
<glyph unicode="&#x2014;" horiz-adv-x="2048" d="M59 424l19 135h2048l-19 -135h-2048z" />
<glyph unicode="&#x2018;" horiz-adv-x="532" d="M250 969l235 481h138l-207 -481h-166z" />
<glyph unicode="&#x2019;" horiz-adv-x="532" d="M250 969l207 481h166l-236 -481h-137z" />
<glyph unicode="&#x201a;" horiz-adv-x="532" d="M74 -287l205 482h165l-233 -482h-137z" />
<glyph unicode="&#x201c;" horiz-adv-x="1062" d="M330 969l235 481h137l-206 -481h-166zM700 969l236 481h137l-207 -481h-166z" />
<glyph unicode="&#x201d;" horiz-adv-x="1062" d="M330 969l207 481h165l-235 -481h-137zM700 969l207 481h166l-235 -481h-138z" />
<glyph unicode="&#x201e;" horiz-adv-x="1062" d="M154 -287l204 482h166l-233 -482h-137zM524 -287l205 482h166l-233 -482h-138z" />
<glyph unicode="&#x2022;" horiz-adv-x="1024" d="M252 725q23 152 143.5 257t270.5 105q152 0 241.5 -106.5t69.5 -255.5q-23 -152 -143.5 -257.5t-270.5 -105.5q-152 0 -241.5 106.5t-69.5 256.5z" />
<glyph unicode="&#x2026;" horiz-adv-x="2048" d="M246 98q6 45 42 78t83 33t74 -33q23 -27 23 -62q0 -8 -1 -16q-6 -45 -43 -77.5t-84 -32.5t-74 32q-22 27 -21 62q0 8 1 16zM928 98q6 45 42 78t83 33t74 -33q23 -27 23 -62q0 -8 -1 -16q-6 -45 -43 -77.5t-84 -32.5t-74 32q-22 27 -21 62q0 8 1 16zM1610 98q6 45 42 78 t83 33t74 -33q23 -27 23 -62q0 -8 -1 -16q-6 -45 -43 -77.5t-84 -32.5t-74 32q-22 27 -21 62q0 8 1 16z" />
<glyph unicode="&#x2039;" horiz-adv-x="645" d="M190 492l347 428l86 -68l-285 -360l184 -361l-106 -68z" />
<glyph unicode="&#x203a;" horiz-adv-x="645" d="M160 131l286 361l-186 360l107 68l227 -428l-348 -429z" />
<glyph unicode="&#x20ac;" d="M115 477h153q2 -233 101.5 -367.5t310.5 -134.5q117 0 223.5 47.5t173.5 137.5l-86 69q-45 -57 -119.5 -94t-154.5 -37q-285 0 -295 379h442l51 113h-491l12 112q10 61 29 156h563l51 115h-579q127 373 432 373q168 0 264 -80l61 127q-47 33 -134 57.5t-171 24.5 q-205 0 -364.5 -126t-243.5 -376h-117l-57 -115h141q-18 -90 -26 -149q-6 -41 -15 -119h-100z" />
<glyph unicode="&#x2122;" horiz-adv-x="2048" d="M336 1339l16 111h674l-16 -111h-273l-102 -733h-123l102 733h-278zM1083 606l119 844h191l172 -647l356 647h184l-118 -844h-123l98 709h-4l-383 -709h-80l-186 709h-4l-99 -709h-123z" />
<glyph unicode="&#xe000;" horiz-adv-x="960" d="M0 960h960v-960h-960v960z" />
<glyph unicode="&#xfb01;" horiz-adv-x="1099" d="M145 836l19 122h203l36 263q49 352 371 352q49 0 115 -14l-41 -123q-57 14 -103 14q-104 0 -148 -63.5t-60 -182.5l-35 -246h227l-18 -122h-228l-116 -836h-136l117 836h-203zM786 0l136 958h135l-135 -958h-136zM942 1327q6 41 40 69.5t73 28.5t64 -28q21 -23 21 -55 q0 -7 -1 -15q-6 -41 -40 -69.5t-73 -28.5t-64 28q-21 23 -21 55q0 7 1 15z" />
<glyph unicode="&#xfb02;" horiz-adv-x="1099" d="M145 836l19 122h203l36 263q49 352 371 352q49 0 115 -14l-41 -123q-57 14 -103 14q-104 0 -148 -63.5t-60 -182.5l-35 -246h227l-18 -122h-228l-116 -836h-136l117 836h-203zM786 0l218 1548h135l-217 -1548h-136z" />
<glyph unicode="&#xfb03;" horiz-adv-x="1703" d="M145 836l19 122h203l36 263q49 352 371 352q49 0 115 -14l-41 -123q-57 14 -103 14q-104 0 -148 -63.5t-60 -182.5l-35 -246h227l-18 -122h-228l-116 -836h-136l117 836h-203zM752 836l18 122h203l37 263q49 352 370 352q49 0 115 -14l-41 -123q-57 14 -102 14 q-104 0 -148.5 -63.5t-60.5 -182.5l-35 -246h227l-18 -122h-227l-117 -836h-135l116 836h-202zM1391 0l135 958h135l-135 -958h-135zM1546 1327q6 41 40 69.5t73 28.5t64 -28q21 -23 21 -55q0 -7 -1 -15q-6 -41 -40 -69.5t-73 -28.5t-64 28q-21 23 -21 55q0 7 1 15z" />
<glyph unicode="&#xfb04;" horiz-adv-x="1703" d="M145 836l19 122h203l36 263q49 352 371 352q49 0 115 -14l-41 -123q-57 14 -103 14q-104 0 -148 -63.5t-60 -182.5l-35 -246h227l-18 -122h-228l-116 -836h-136l117 836h-203zM752 836l18 122h203l37 263q49 352 370 352q49 0 115 -14l-41 -123q-57 14 -102 14 q-104 0 -148.5 -63.5t-60.5 -182.5l-35 -246h227l-18 -122h-227l-117 -836h-135l116 836h-202zM1391 0l217 1548h135l-217 -1548h-135z" />
</font>
</defs>
</svg>
