<?xml version="1.0" encoding="utf-8"?>
<!-- Generator: Adobe Illustrator 19.1.0, SVG Export Plug-In . SVG Version: 6.00 Build 0)  -->
<svg version="1.1" id="weixin" xmlns="http://www.w3.org/2000/svg" xmlns:xlink="http://www.w3.org/1999/xlink" x="0px" 
	 y="0px" viewBox="0 0 256 256" enable-background="new 0 0 256 256" xml:space="preserve">
<path d="M93.5,24.1c49.2,0,82.9,30,87.7,61.9c-3.8-0.5-12.2-1.4-26.3,2.2c-12.3,3.1-25.7,7.7-40.1,22c-14.1,15.1-17.9,29-18.5,37.7
	c-0.5,7.9-1,14.4,1.9,24.1c0,0.5-1.8,1.1-2.7,1.3c-9.5,2.9-28.1-0.3-33.5-3c-4.1,1.8-9.2,5.4-29.6,15l3.3-9.8
	c3-8.9,3.1-9.4,5.5-16.8c0.3-0.8-3.2-2.2-4.9-3.6C15.9,141.8,3,120.7,3,97.6C3,57,43.5,24.1,93.5,24.1z M62.6,61.2
	c-8.1,0-14.6,5.6-14.6,12.5s6.5,12.5,14.6,12.5s14.6-5.6,14.6-12.5S70.7,61.2,62.6,61.2z M124.6,61.2c-8.1,0-14.6,5.6-14.6,12.5
	s6.5,12.5,14.6,12.5s14.6-5.6,14.6-12.5S132.6,61.2,124.6,61.2z"/>
<path d="M221.6,206.5c-0.4,0.2,1,4.7,4.8,15.9c0,0,2,4.2,0.8,3.8c-4.7-1.6-11.3-3.4-21.3-11.1c-9.1,3.8-20.8,5.1-28.3,5.1
	c-41.5,0-75.1-28.8-75.1-64.3c0-35.5,33.6-64.3,75.1-64.3s75.1,28.8,75.1,64.3c0,13.9-5.2,26.8-13.9,37.3
	C233.2,199.9,225.2,204.7,221.6,206.5z M203.3,126.4c-6.8,0-12.3,4.7-12.3,10.5s5.5,10.5,12.3,10.5c6.8,0,12.3-4.7,12.3-10.5
	S210.2,126.4,203.3,126.4z M155.3,126.4c-6.8,0-12.3,4.7-12.3,10.5s5.5,10.5,12.3,10.5c6.8,0,12.3-4.7,12.3-10.5
	S162.1,126.4,155.3,126.4z"/>
</svg>
